<svg width="242" height="222" viewBox="0 0 242 222" fill="none" xmlns="http://www.w3.org/2000/svg">
<path d="M51.1077 220.89H111.592" stroke="#27343A" stroke-width="1.5" stroke-miterlimit="10"/>
<path d="M92.4536 126.611H69.312C65.7389 126.611 62.8423 129.506 62.8423 133.078V133.078C62.8423 136.649 65.7389 139.545 69.312 139.545H92.4536C96.0267 139.545 98.9233 136.649 98.9233 133.078C98.9233 129.506 96.0267 126.611 92.4536 126.611Z" fill="#608F3E"/>
<path d="M92.4529 139.545H69.3113" stroke="#27343A" stroke-width="1.5" stroke-miterlimit="10"/>
<path d="M80.8828 139.545V221.378" stroke="#27343A" stroke-width="1.5" stroke-miterlimit="10"/>
<path d="M90.4306 219.096C90.4306 219.096 88.8927 215.596 92.7965 214.835C95.1163 214.373 97.4899 214.742 99.6577 215.9C99.6577 215.9 96.9369 211.638 101.196 209.812C105.454 207.986 109.831 212.247 109.831 212.247C109.831 212.247 105.573 202.05 108.885 201.289C112.197 200.528 113.972 204.941 113.972 204.941C113.972 204.941 113.617 192.309 120.478 192.004C127.339 191.7 126.629 208.138 126.629 208.138C126.629 208.138 129.587 200.832 134.555 200.528C139.524 200.223 137.039 212.765 137.039 212.765C137.039 212.765 137.986 209.812 141.298 209.508C144.61 209.203 144.374 212.775 144.374 212.775C144.374 212.775 148.632 205.094 153.364 205.55C158.096 206.007 156.085 213.617 156.085 213.617C160.935 213.16 162 220 162 220H87L90.4306 219.096Z" fill="#27343A"/>
<path d="M128.54 101.489C128.54 101.489 169.106 114.936 184.408 161.198L191.127 164.183L169.479 170.898L134.395 133.078L109.603 116.581" fill="#C7D2D3"/>
<path d="M143.469 181.332C154.265 107.597 116.853 104.668 116.853 104.668L99.5608 133.077L116.688 132.343L121.382 189.385L146.773 187.052L143.469 181.332Z" fill="#EAEEEF"/>
<path d="M143.47 181.332C154.265 107.597 116.853 104.668 116.853 104.668" stroke="#27343A" stroke-width="1.5" stroke-miterlimit="10"/>
<path d="M108.205 94.637L67.3727 104.669C67.3727 104.669 64.6721 135.979 108.205 133.077L131.783 100.084L108.205 94.637Z" fill="#EAEEEF"/>
<path d="M108.204 133.078L131.782 100.084" stroke="#27343A" stroke-width="1.5" stroke-miterlimit="10"/>
<path d="M67.3727 104.668C67.3727 104.668 64.6721 135.979 108.205 133.077" stroke="#27343A" stroke-width="1.5" stroke-miterlimit="10"/>
<path d="M79.6672 32.8595V37.4566C79.6672 39.1839 80.2466 40.8613 81.3128 42.2206C82.3789 43.58 83.8702 44.5428 85.5483 44.955L92.8667 46.7531V28.7794L86.7815 27.2843C85.9358 27.0766 85.0539 27.0637 84.2025 27.2469C83.3511 27.43 82.5525 27.8043 81.8671 28.3414C81.1817 28.8785 80.6275 29.5643 80.2464 30.3471C79.8653 31.1298 79.6672 31.9889 79.6672 32.8595V32.8595Z" fill="#EAEEEF"/>
<path d="M79.6672 37.4565C79.6672 39.1838 80.2466 40.8613 81.3128 42.2206C82.3789 43.58 83.8702 44.5427 85.5483 44.955L92.8667 46.753" stroke="#27343A" stroke-width="1.5" stroke-miterlimit="10"/>
<path d="M87.1243 36.546C87.3196 36.546 87.4779 36.3877 87.4779 36.1924C87.4779 35.9972 87.3196 35.8389 87.1243 35.8389C86.9291 35.8389 86.7708 35.9972 86.7708 36.1924C86.7708 36.3877 86.9291 36.546 87.1243 36.546Z" fill="#27343A"/>
<path d="M81.7037 36.546C81.899 36.546 82.0573 36.3877 82.0573 36.1924C82.0573 35.9972 81.899 35.8389 81.7037 35.8389C81.5084 35.8389 81.3501 35.9972 81.3501 36.1924C81.3501 36.3877 81.5084 36.546 81.7037 36.546Z" fill="#27343A"/>
<path d="M83.2936 38.2975V32.8608H80.5688" stroke="#27343A" stroke-width="1.5" stroke-miterlimit="10"/>
<path d="M87.7882 32.8606H85.0635" stroke="#27343A" stroke-width="1.5" stroke-miterlimit="10"/>
<path d="M91.9976 35.6451V37.5331C92.4868 37.5331 92.956 37.3388 93.302 36.993C93.6479 36.6472 93.8423 36.1781 93.8423 35.6891C93.8423 35.6325 93.8398 35.5765 93.8348 35.5212C93.7314 34.3762 91.9976 34.4954 91.9976 35.6451Z" fill="#EAEEEF"/>
<path d="M91.9973 37.5335C92.4866 37.5335 92.9558 37.3391 93.3017 36.9932C93.6477 36.6473 93.8421 36.1782 93.8421 35.689" stroke="#27343A" stroke-width="1.5" stroke-miterlimit="10"/>
<path d="M84.783 38.9316C85.012 39.1608 85.3227 39.2896 85.6467 39.2896C85.9707 39.2896 86.2814 39.1608 86.5105 38.9316" stroke="#608F3E" stroke-width="1.5" stroke-linecap="round" stroke-linejoin="round"/>
<path d="M83.2935 38.3L84.4865 38.5932" stroke="#27343A" stroke-width="1.5" stroke-miterlimit="10" stroke-linecap="round"/>
<path d="M79.2869 30.9312L89.572 31.4286C89.572 31.4286 90.1605 34.7979 91.9977 35.1596" stroke="#608F3E" stroke-width="1.5" stroke-linecap="round" stroke-linejoin="round"/>
<path d="M79.2865 39.8024L74.6416 38.2959C74.6416 38.2959 74.8904 20.7328 89.8205 23.386C89.8205 23.386 99.2763 23.766 100.272 33.964C101.267 44.1621 101.112 44.815 101.112 44.815L92.8667 42.8701" stroke="#608F3E" stroke-width="1.5" stroke-linecap="round" stroke-linejoin="round"/>
<path d="M108.204 65.8256V94.6372L67.3723 104.669V72.5807C67.3723 67.0519 69.2268 61.6827 72.6394 57.3316C76.052 52.9805 80.8254 49.8988 86.1967 48.5792H86.1967C88.8129 47.9365 91.541 47.8968 94.1748 48.4633C96.8085 49.0298 99.2789 50.1876 101.399 51.8491C103.519 53.5106 105.234 55.6322 106.413 58.0536C107.592 60.475 108.204 63.1327 108.204 65.8256V65.8256Z" fill="#608F3E"/>
<path d="M79.2874 51.4397C79.2874 51.4397 52.2844 67.5542 42.5803 91.8046C32.8762 116.055 81.7343 101.14 81.7343 101.14C81.7343 101.14 89.6805 101.659 92.6665 97.9229L96.2885 97.5645L95.8599 95.8501L65.668 89.2173L79.668 76.3627" stroke="#27343A" stroke-width="1.5" stroke-miterlimit="10"/>
<path d="M65.667 89.2172L76.7401 91.6499C68.6619 88.6637 77.2731 78.5613 77.2752 78.5588L65.667 89.2172Z" fill="#27343A"/>
<path d="M82.8302 92.9887C82.4915 92.7445 81.5586 92.5226 79.8582 92.3352L82.8302 92.9887Z" fill="#27343A"/>
<path d="M104.702 55.2299L116.853 73.6304C116.853 73.6304 120.909 51.7419 126.549 49.752C132.189 47.7622 134.844 46.7532 134.844 46.7532L135.475 48.7445L132.853 51.4402C132.853 51.4402 135.398 57.0482 131.14 58.3748C131.14 58.3748 143.745 94.1635 118.06 96.914" stroke="#27343A" stroke-width="1.5" stroke-miterlimit="10"/>
<path d="M60.9767 189.06C59.7329 185.579 56.0891 190.177 56.0891 190.177C56.0891 190.177 60.4792 180.854 56.0891 178.741C53.9235 177.698 52.7839 178.925 52.1846 180.435C54.4309 166.88 54.9156 140.735 45.8491 139.825C35.9455 138.83 39.3341 163.945 39.3341 163.945C39.3341 163.945 36.5977 156.734 33.1151 159.967C29.6326 163.199 36.3489 184.336 36.3489 184.336C35.6026 182.098 31.6223 180.357 30.1297 184.336C28.6372 188.314 34.3588 196.769 34.3588 196.769L54.0113 200.002C54.0113 200.002 62.2206 192.542 60.9767 189.06Z" fill="#27343A"/>
<path d="M59.5132 220.89H31.3725L25.1494 195.753H65.7359L59.5132 220.89Z" fill="#608F3E"/>
<path d="M0 220.89H93.8423" stroke="#27343A" stroke-width="1.5" stroke-miterlimit="10"/>
<path d="M25.1499 195.753H65.7364" stroke="#27343A" stroke-width="1.5" stroke-miterlimit="10"/>
<path d="M129.079 1H161.728L175.492 18.189H142.843L129.079 1Z" fill="#27343A"/>
<path d="M142.843 18.189L129.079 1H161.728" stroke="#27343A" stroke-width="1.5" stroke-miterlimit="10"/>
<path d="M142.847 18.1895H193.587V75.5922H142.847V18.1895Z" fill="#F2C94C"/>
<path d="M193.587 18.1895H226.236V75.5922H193.587V18.1895Z" fill="#FFB84D"/>
<path d="M226.236 18.189V75.5917H142.848" stroke="#27343A" stroke-width="1.5" stroke-miterlimit="10"/>
<path d="M240 1H207.352L193.587 18.189H226.236L240 1Z" fill="#FFE592"/>
<path d="M226.236 18.189L240 1H207.352" stroke="#27343A" stroke-width="1.5" stroke-miterlimit="10"/>
<path d="M160.942 18.1895H175.492V35.028H160.942V18.1895Z" fill="#608F3E"/>
<path d="M81.3184 220.89H219.411" stroke="#27343A" stroke-width="1.5" stroke-miterlimit="10"/>
</svg>
