<svg width="200" height="200" viewBox="0 0 200 200" fill="none" xmlns="http://www.w3.org/2000/svg">
<path d="M123.175 182.845C123.175 173.369 114.825 165.688 104.527 165.688C94.2275 165.688 85.8794 173.369 85.8794 182.845C85.8794 192.319 94.2275 200 104.527 200C114.825 200 123.175 192.319 123.175 182.845Z" fill="#03592D"/>
<path d="M157.974 117.178C157.974 140.201 134.044 158.865 104.527 158.865C75.0092 158.865 51.0803 140.201 51.0803 117.178C51.0803 94.1559 61.937 0 104.527 0C147.118 0 157.974 94.1559 157.974 117.178Z" fill="#FFE592"/>
<path d="M93.4571 143.509C93.4571 143.509 103.63 89.4806 149.043 59.0347C156.142 54.2755 165.437 60.5392 163.774 68.924C161.595 79.9011 159.451 93.8309 159.663 106.686C160.104 133.334 164.064 192.264 115.176 187.511C83.4641 184.427 93.4571 143.509 93.4571 143.509Z" fill="#A9D053"/>
<path d="M147.022 176.505C141.548 174.008 137.63 170.575 134.898 167.398C131.455 163.393 129.579 158.272 129.578 152.992C129.565 127.051 115.318 109.439 109.203 103.073C96.9956 124.727 93.4571 143.509 93.4571 143.509C93.4571 143.509 83.4641 184.427 115.176 187.511C130.283 188.979 140.344 184.366 147.022 176.505Z" fill="#608F3E"/>
<path d="M114.026 143.509C114.026 143.509 110.194 123.178 96.753 100.433L47.6899 112.967C47.0826 141.557 46.9666 191.917 92.3066 187.511C124.019 184.427 114.026 143.509 114.026 143.509Z" fill="#A9D053"/>
<path d="M96.7514 100.433L47.6898 112.967C47.4533 124.091 47.2915 138.509 49.8519 151.717C57.8659 148.912 68.8552 143.411 73.6984 133.418C81.7687 116.771 103.741 113.713 103.741 113.713C101.768 109.48 99.4552 105.005 96.7514 100.433Z" fill="#608F3E"/>
<path d="M96.753 100.433C96.753 100.433 66.6276 105.405 48.3262 130.676C44.4001 136.098 35.8033 132.89 36.3541 126.219C37.2193 115.726 40.5778 103.098 49.6537 91.1713C51.7777 88.3804 54.6143 86.1923 57.8889 84.9335C66.5803 81.5918 84.2133 78.5706 96.753 100.433Z" fill="#A9D053"/>
<path d="M97.4363 29.4318L93.4523 25.4493C91.5159 23.5114 91.5159 20.3727 93.4523 18.4363L97.4363 14.4523C99.3727 12.5159 102.513 12.5159 104.449 14.4523L108.432 18.4363C110.37 20.3727 110.37 23.5114 108.432 25.4493L104.449 29.4318C102.513 31.3681 99.3727 31.3681 97.4363 29.4318Z" fill="#F2C94C"/>
<path d="M114.049 46.044L110.065 42.0615C108.128 40.1251 108.128 36.9849 110.065 35.0485L114.049 31.0645C115.985 29.1281 119.125 29.1281 121.062 31.0645L125.046 35.0485C126.982 36.9849 126.982 40.1251 125.046 42.0615L121.062 46.044C119.125 47.9804 115.985 47.9804 114.049 46.044Z" fill="#F2C94C"/>
<path d="M126.521 66.5573C124.855 66.5573 123.503 65.2054 123.503 63.5391V58.5281C123.503 56.8619 124.855 55.5099 126.521 55.5099C128.189 55.5099 129.539 56.8619 129.539 58.5281V63.5391C129.539 65.2069 128.189 66.5573 126.521 66.5573Z" fill="#27343A"/>
<path d="M82.4113 66.5573C80.745 66.5573 79.3931 65.2054 79.3931 63.5391V58.5281C79.3931 56.8619 80.745 55.5099 82.4113 55.5099C84.079 55.5099 85.4294 56.8619 85.4294 58.5281V63.5391C85.4294 65.2069 84.079 66.5573 82.4113 66.5573Z" fill="#27343A"/>
</svg>
