<svg width="204" height="228" viewBox="0 0 204 228" fill="none" xmlns="http://www.w3.org/2000/svg">
<path d="M188.366 207.269L181.666 213.088L163.798 190.24L155.758 196.969L113.323 141.171L75.8013 207.269L65.5278 195.916L46.7667 226.72H204L188.366 207.269Z" fill="#F5F7F8"/>
<path d="M95.7994 226.091C95.7994 226.091 94.0717 223.034 98.4575 222.369C101.064 221.967 103.73 222.288 106.166 223.3C106.166 223.3 103.109 219.578 107.894 217.983C112.678 216.389 117.596 220.11 117.596 220.11C117.596 220.11 112.811 211.205 116.533 210.541C120.254 209.876 122.247 213.73 122.247 213.73C122.247 213.73 121.849 202.699 129.557 202.434C137.266 202.168 136.468 216.521 136.468 216.521C136.468 216.521 139.791 210.142 145.373 209.876C150.955 209.61 148.164 220.562 148.164 220.562C148.164 220.562 149.227 217.983 152.948 217.718C156.67 217.452 156.404 220.571 156.404 220.571C156.404 220.571 161.189 213.863 166.505 214.262C171.821 214.661 169.562 221.306 169.562 221.306C175.011 220.907 176.207 226.88 176.207 226.88H91.9452L95.7994 226.091Z" fill="#27343A"/>
<path d="M111.681 82.189L134.95 83.6814L108.114 131.327L128.249 186.913L102.418 203.37L102.669 195.138C102.669 195.138 85.1416 176.136 71.8121 133.312C58.4827 90.4879 111.681 82.189 111.681 82.189Z" fill="#EAEEEF"/>
<path d="M92.0426 125.655L107.924 122.819L111.932 124.547L108.114 131.327L112.262 142.779C112.262 142.779 95.2853 149.68 85.7579 168.414C84.9713 166.839 84.1761 165.191 83.3723 163.469C85.9374 149.508 92.0426 125.655 92.0426 125.655Z" fill="#27343A"/>
<path d="M17.9462 74.2906H91.9951L86.916 29.8682H12.8672L17.9462 74.2906Z" fill="#EAEEEF"/>
<path d="M20.8867 70.5015H94.9355L89.8565 26.0791H15.8076L20.8867 70.5015Z" stroke="#27343A" stroke-width="1.5" stroke-linecap="round" stroke-linejoin="round"/>
<path d="M52.845 87.3428L50.9193 70.5012H62.7621L64.6877 87.3428H52.845Z" fill="#27343A"/>
<path d="M51.3924 185.779C51.3924 185.779 56.5842 85.2645 125.505 85.5867L158.218 93.627C158.218 93.627 166.351 138.231 98.2892 135.679L73.6169 199.487L46.8176 190.128L51.3924 185.779Z" fill="#C7D2D3"/>
<path d="M51.3925 185.779C51.3925 185.779 56.5843 85.2645 125.505 85.5867" stroke="#27343A" stroke-width="1.5" stroke-linecap="round" stroke-linejoin="round"/>
<path d="M158.218 93.627C158.218 93.627 166.351 138.231 98.2892 135.679L73.6169 199.487" stroke="#27343A" stroke-width="1.5" stroke-linecap="round" stroke-linejoin="round"/>
<path d="M127.428 11.7502V23.8942L142.471 27.5918V7.09827L127.428 3.40063V11.7502Z" fill="#EAEEEF"/>
<path d="M135.926 15.9521C135.703 15.9521 135.523 15.7719 135.523 15.5497C135.523 15.3274 135.703 15.1472 135.926 15.1472C136.148 15.1472 136.328 15.3274 136.328 15.5497C136.328 15.7719 136.148 15.9521 135.926 15.9521Z" fill="#27343A"/>
<path d="M129.748 15.9521C129.525 15.9521 129.345 15.7719 129.345 15.5497C129.345 15.3274 129.525 15.1472 129.748 15.1472C129.97 15.1472 130.15 15.3274 130.15 15.5497C130.15 15.7719 129.97 15.9521 129.748 15.9521Z" fill="#27343A"/>
<path d="M131.56 17.949V11.75H128.455" stroke="#27343A" stroke-width="1.5" stroke-linecap="round" stroke-linejoin="round"/>
<path d="M136.684 11.7502H133.578" stroke="#27343A" stroke-width="1.5" stroke-linecap="round" stroke-linejoin="round"/>
<path d="M141.481 14.9264V17.079C142.038 17.079 142.573 16.8575 142.967 16.4632C143.362 16.0689 143.583 15.5341 143.583 14.9765C143.583 14.912 143.58 14.8482 143.575 14.7851C143.457 13.4795 141.481 13.6155 141.481 14.9264Z" fill="#C7D2D3"/>
<path d="M141.481 17.0788C142.038 17.0788 142.573 16.8573 142.967 16.463C143.362 16.0687 143.583 15.5339 143.583 14.9763" stroke="#27343A" stroke-width="1.5" stroke-linecap="round" stroke-linejoin="round"/>
<path d="M132.918 19.4769C133.483 19.4769 134.024 19.2527 134.423 18.8536C134.822 18.4545 135.046 17.9133 135.046 17.3489" stroke="#608F3E" stroke-width="1.5" stroke-linecap="round" stroke-linejoin="round"/>
<path d="M127.428 23.894L142.471 27.5916" stroke="#27343A" stroke-width="1.5" stroke-linecap="round" stroke-linejoin="round"/>
<path d="M131.559 17.9541L132.918 18.2881" stroke="#27343A" stroke-width="1.5" stroke-linecap="round" stroke-linejoin="round"/>
<path d="M111.681 49.3379V82.1887L158.218 93.6268V57.04C158.218 50.7361 156.105 44.6142 152.215 39.6531C148.326 34.692 142.885 31.1782 136.764 29.6736H136.764C133.782 28.9408 130.672 28.8956 127.671 29.5415C124.669 30.1874 121.853 31.5075 119.437 33.4019C117.02 35.2963 115.067 37.7155 113.723 40.4763C112.379 43.2372 111.681 46.2674 111.681 49.3379L111.681 49.3379Z" fill="#608F3E"/>
<path d="M141.481 13.8718C140.327 12.4552 139.505 10.7981 139.075 9.02221C139.075 9.02221 130.15 11.9646 126.49 7.03698C124.831 4.80349 125.603 2.62403 126.381 1.33655C126.439 1.23617 126.522 1.15244 126.621 1.09349C126.721 1.03454 126.834 1.00238 126.95 1.00013C127.066 0.997875 127.18 1.02561 127.282 1.08064C127.384 1.13567 127.47 1.21612 127.532 1.31418C127.894 1.94822 128.747 2.46829 130.744 1.71939C134.11 0.457293 141.114 0.868579 142.23 5.12265C142.23 5.12265 147.193 6.50522 142.93 13.9325" stroke="#27343A" stroke-width="1.5" stroke-linecap="round" stroke-linejoin="round"/>
<path d="M116.069 87.343H14.738" stroke="#27343A" stroke-width="1.5" stroke-linecap="round" stroke-linejoin="round"/>
<path d="M147.07 34.5881C147.07 34.5881 166.252 50.3415 171.074 75.8032C175.895 101.265 137.666 95.1466 119.458 87.6518" stroke="#27343A" stroke-width="1.5" stroke-linecap="round" stroke-linejoin="round"/>
<path d="M150.796 74.2905C150.796 74.2905 107.546 66.6455 104.568 85.5858" stroke="#27343A" stroke-width="1.5" stroke-linecap="round" stroke-linejoin="round"/>
<path d="M118.057 34.5881C118.057 34.5881 104.484 48.594 100.905 74.2906C100.905 74.2906 87.1376 74.7641 86.587 85.5859" stroke="#27343A" stroke-width="1.5" stroke-linecap="round" stroke-linejoin="round"/>
<path d="M155.077 42.8884C155.077 42.8884 161.246 30.0801 166.351 41.1407C171.456 52.2013 193.762 125.088 170.223 137.283C146.684 149.478 112.262 142.78 112.262 142.78" stroke="#27343A" stroke-width="1.5" stroke-linecap="round" stroke-linejoin="round"/>
<path d="M138.275 144.615V226.698H166.351" stroke="#27343A" stroke-width="1.5" stroke-linecap="round" stroke-linejoin="round"/>
<path d="M6.69287 77.9878H31.1022V53.5785H6.69287V77.9878Z" fill="#FFB84D"/>
<path d="M-0.000335693 55.4184L18.8968 36.5212L37.7939 55.4184H-0.000335693Z" fill="#FFB84D"/>
<path d="M6.69238 125.985H31.1017V101.576H6.69238V125.985Z" fill="#F2C94C"/>
<path d="M-0.000579834 103.415L18.8966 84.5183L37.7937 103.415H-0.000579834Z" fill="#F2C94C"/>
<path d="M6.53589 173.889L30.9445 174.074L31.129 149.665L6.7204 149.481L6.53589 173.889Z" fill="#FFE592"/>
<path d="M0.0144768 151.27L19.0537 132.516L37.8076 151.556L0.0144768 151.27Z" fill="#FFE592"/>
</svg>
