<svg width="144" height="144" viewBox="0 0 144 144" fill="none" xmlns="http://www.w3.org/2000/svg">
<path fill-rule="evenodd" clip-rule="evenodd" d="M72.8925 4.5C77.7761 9.72086 82.3388 15.2316 86.5557 21.0021L72.8925 34.6362L59.229 21.0021C63.4444 15.2303 68.0073 9.7195 72.8925 4.5Z" fill="#A9D053"/>
<path d="M55.0105 27.159C52.219 31.451 49.7957 35.9706 47.7664 40.6694L69.2178 62.0747V41.3355L55.0105 27.159Z" fill="#608F3E"/>
<path d="M98.0156 40.6694C95.9895 35.969 93.5661 31.4492 90.7715 27.159L76.5638 41.3361V62.075L98.0156 40.6694Z" fill="#608F3E"/>
<path d="M72.8036 86.8957C83.1278 86.8957 91.4973 78.5442 91.4973 68.2422C91.4973 57.9402 83.1278 49.5887 72.8036 49.5887C62.4793 49.5887 54.1099 57.9402 54.1099 68.2422C54.1099 78.5442 62.4793 86.8957 72.8036 86.8957Z" fill="#F2C94C"/>
<path d="M72.0449 54.207C74.7194 54.2881 77.3086 55.1645 79.4805 56.7238C80.3025 57.3202 81.0548 58.0069 81.7233 58.7708C81.5632 57.5544 81.0729 56.4048 80.3056 55.4463C78.976 53.838 76.871 53.1324 74.7278 53.399C73.7954 53.5206 72.8891 53.7936 72.0449 54.207Z" fill="#27343A"/>
<path d="M45.0908 48.3674C38.6491 72.1181 53.1845 84.834 69.2174 86.5095V72.4422L45.0908 48.3674Z" fill="#03592D"/>
<path d="M76.5639 86.5095C92.5957 84.8289 107.134 72.1232 100.691 48.3674L76.5639 72.4425V86.5095Z" fill="#03592D"/>
<path fill-rule="evenodd" clip-rule="evenodd" d="M24.8655 96.849C23.2504 95.6166 21.0654 95.0004 18.3104 95.0004C17.0979 94.9918 15.8878 95.111 14.7003 95.3559C13.6774 95.5631 12.687 95.9059 11.7552 96.3751C11.355 96.5691 10.9992 96.8434 10.7101 97.1808C10.4785 97.496 10.3613 97.8805 10.3776 98.271C10.3752 98.612 10.4835 98.9446 10.6864 99.2191L10.6925 99.2276C10.8554 99.4477 11.0893 99.605 11.3548 99.6732C11.6204 99.7414 11.9013 99.7163 12.1504 99.602C12.9193 99.2563 13.7071 98.9543 14.5102 98.6976C15.7232 98.312 16.9897 98.1201 18.2627 98.1289C19.8778 98.129 21.1604 98.4924 22.1105 99.2191C23.0605 99.946 23.5355 101.099 23.5355 102.679V104.006L16.7902 104.67C14.3197 104.923 12.4039 105.579 11.0426 106.637C9.68088 107.696 9 109.268 9 111.353C8.9996 113.566 9.81506 115.256 11.4464 116.425C13.077 117.594 15.3808 118.179 18.3579 118.179C19.8063 118.198 21.2513 118.031 22.6567 117.681C23.7087 117.427 24.7229 117.037 25.673 116.52C26.1408 116.264 26.5527 115.918 26.8844 115.501C27.1837 115.027 27.3251 114.471 27.2881 113.913V102.679C27.2882 100.025 26.4806 98.0815 24.8655 96.849ZM21.6593 114.647C20.5845 114.942 19.4722 115.078 18.3579 115.05C16.4892 115.051 15.0958 114.727 14.1776 114.079C13.7311 113.771 13.3703 113.355 13.1294 112.87C12.8884 112.385 12.7751 111.847 12.8002 111.306C12.7999 110.169 13.1957 109.308 13.9877 108.722C14.7792 108.138 15.9984 107.767 17.6454 107.609L23.5355 106.992V113.865C22.9477 114.208 22.3167 114.471 21.6593 114.647Z" fill="#608F3E"/>
<path d="M73.9092 97.9513C73.909 97.35 73.5323 96.8488 72.7793 96.4479C72.0256 96.0469 70.9832 95.8464 69.6521 95.8464C68.4312 95.839 67.2232 96.0955 66.1111 96.5982C65.0405 97.074 64.0886 97.78 63.3234 98.6657V97.9513C63.3231 96.6983 62.6952 96.0718 61.4397 96.0718C61.1855 96.0439 60.9283 96.0733 60.687 96.1578C60.4458 96.2424 60.2266 96.38 60.0458 96.5604C59.865 96.7409 59.7271 96.9595 59.6423 97.2003C59.5576 97.441 59.5281 97.6977 59.5561 97.9513V114.755C59.5363 115.011 59.5696 115.268 59.6539 115.511C59.7381 115.753 59.8715 115.976 60.0458 116.165C60.4299 116.499 60.9311 116.668 61.4397 116.634C61.6962 116.654 61.9539 116.621 62.197 116.537C62.44 116.453 62.6631 116.32 62.8524 116.146C63.1872 115.762 63.3565 115.262 63.3234 114.755V103.778C63.3032 103.128 63.4439 102.482 63.733 101.899C64.022 101.315 64.4506 100.812 64.9809 100.433C66.086 99.6055 67.5426 99.192 69.3509 99.192C70.1729 99.2121 70.9919 99.3002 71.7994 99.4551C71.9852 99.4973 72.1745 99.5224 72.365 99.5303C73.1432 99.5306 73.6455 99.1296 73.8717 98.3274C73.9018 98.2044 73.9144 98.0778 73.9092 97.9513Z" fill="#608F3E"/>
<path fill-rule="evenodd" clip-rule="evenodd" d="M52.493 100.959C51.6289 99.4079 50.3509 98.1262 48.801 97.256C47.1725 96.3516 45.334 95.8914 43.4705 95.9216C41.5888 95.8898 39.7316 96.3498 38.0833 97.2561C36.5278 98.1189 35.2481 99.4024 34.3915 100.959C33.4917 102.62 33.0375 104.484 33.0728 106.372C33.0402 108.236 33.4603 110.081 34.2972 111.748C35.0688 113.279 36.2569 114.562 37.7253 115.45C39.2322 116.35 40.961 116.812 42.717 116.785C44.2417 116.807 45.7424 116.404 47.0493 115.62C48.3437 114.829 49.4086 113.714 50.1385 112.387V114.229C50.1763 115.641 49.8658 117.042 49.2343 118.307C48.6926 119.382 47.8566 120.281 46.8233 120.901C45.8065 121.493 44.6476 121.798 43.4705 121.784C42.2663 121.805 41.0716 121.568 39.967 121.089C38.9585 120.642 38.0779 119.951 37.4052 119.078C37.2314 118.831 36.9999 118.63 36.7308 118.493C36.4617 118.355 36.163 118.285 35.8607 118.288C35.4835 118.296 35.1169 118.414 34.8058 118.627C34.571 118.768 34.3756 118.966 34.2374 119.203C34.0991 119.439 34.0226 119.706 34.0146 119.98C34.0284 120.368 34.1747 120.739 34.4291 121.033C35.4714 122.351 36.8148 123.402 38.347 124.096C39.9312 124.816 41.6542 125.182 43.395 125.168C45.292 125.197 47.161 124.71 48.801 123.758C50.3724 122.842 51.6573 121.508 52.5119 119.905C53.3997 118.239 53.8532 116.378 53.8303 114.492V106.372C53.8652 104.482 53.4042 102.616 52.493 100.959ZM49.2908 109.999C48.7507 111.039 47.9282 111.905 46.9175 112.499C45.8653 113.091 44.678 113.401 43.4704 113.401C42.2628 113.401 41.0756 113.091 40.0234 112.499C39.0101 111.902 38.1822 111.037 37.6313 109.999C37.0407 108.882 36.7426 107.635 36.7648 106.372C36.7443 105.103 37.0421 103.85 37.6313 102.726C38.1782 101.68 39.0067 100.808 40.0234 100.207C41.0756 99.6155 42.2628 99.3048 43.4704 99.3048C44.678 99.3048 45.8653 99.6155 46.9175 100.207C47.9316 100.805 48.7546 101.679 49.2908 102.726C49.8679 103.854 50.1589 105.106 50.1385 106.372C50.1605 107.632 49.8693 108.879 49.2908 109.999Z" fill="#608F3E"/>
<path fill-rule="evenodd" clip-rule="evenodd" d="M80.3135 115.45C78.7579 114.588 77.4782 113.304 76.6217 111.748C75.7553 110.081 75.3031 108.231 75.3031 106.353C75.3031 104.476 75.7553 102.626 76.6217 100.959C77.4783 99.4023 78.758 98.1188 80.3135 97.2561C81.9618 96.3498 83.8191 95.8898 85.7008 95.9216C87.5643 95.8914 89.4029 96.3517 91.0314 97.2561C92.5813 98.1263 93.8591 99.408 94.7232 100.959C95.5985 102.622 96.0573 104.472 96.0606 106.351C96.0639 108.23 95.6114 110.081 94.742 111.748C93.8887 113.3 92.6162 114.583 91.0689 115.45C89.4125 116.327 87.5661 116.785 85.6912 116.785C83.8163 116.785 81.97 116.327 80.3135 115.45ZM89.1476 112.499C90.1584 111.905 90.981 111.039 91.5211 109.999C92.0996 108.879 92.3909 107.632 92.3688 106.372C92.3893 105.106 92.0982 103.854 91.5211 102.726C90.9849 101.679 90.1618 100.805 89.1476 100.207C88.0954 99.6155 86.9082 99.3048 85.7006 99.3048C84.493 99.3048 83.3058 99.6155 82.2536 100.207C81.2369 100.808 80.4084 101.68 79.8614 102.726C79.2722 103.85 78.9743 105.103 78.9949 106.372C78.9727 107.635 79.2708 108.882 79.8614 109.999C80.4123 111.037 81.2403 111.902 82.2536 112.499C83.3058 113.091 84.493 113.401 85.7006 113.401C86.9082 113.401 88.0954 113.091 89.1476 112.499Z" fill="#608F3E"/>
<path d="M99.8814 107.106C99.9755 107.34 100.118 107.55 100.299 107.725C100.481 107.9 100.697 108.037 100.933 108.127C101.169 108.217 101.421 108.26 101.673 108.251H110.074C110.325 108.262 110.574 108.221 110.808 108.131C111.041 108.04 111.253 107.902 111.431 107.725C111.608 107.548 111.746 107.337 111.837 107.104C111.928 106.871 111.969 106.622 111.958 106.372C111.966 106.12 111.923 105.868 111.833 105.633C111.742 105.397 111.605 105.182 111.431 105C111.255 104.82 111.044 104.678 110.81 104.584C110.577 104.49 110.326 104.446 110.074 104.455H101.673C101.419 104.447 101.166 104.492 100.93 104.586C100.693 104.679 100.478 104.82 100.298 105C100.119 105.179 99.9773 105.394 99.8833 105.63C99.7894 105.866 99.7447 106.118 99.7521 106.372C99.7432 106.623 99.7873 106.873 99.8814 107.106Z" fill="#608F3E"/>
<path fill-rule="evenodd" clip-rule="evenodd" d="M134.147 107.218C133.982 107.375 133.786 107.497 133.573 107.578C133.359 107.658 133.132 107.696 132.904 107.688H118.589C118.816 109.356 119.671 110.874 120.98 111.935C121.984 112.718 123.169 113.238 124.425 113.448C125.682 113.658 126.971 113.552 128.176 113.138C128.898 112.911 129.579 112.568 130.191 112.123C130.546 111.847 130.985 111.701 131.435 111.71C131.846 111.687 132.25 111.822 132.565 112.086C132.768 112.233 132.935 112.425 133.052 112.646C133.17 112.868 133.235 113.113 133.243 113.364C133.243 113.587 133.187 113.806 133.082 114.003C132.977 114.199 132.825 114.367 132.64 114.492C131.683 115.223 130.606 115.782 129.457 116.146C127.962 116.666 126.376 116.872 124.798 116.753C123.219 116.633 121.682 116.19 120.284 115.45C118.688 114.596 117.363 113.314 116.46 111.748C115.528 110.111 115.053 108.254 115.085 106.372C115.054 104.493 115.501 102.637 116.384 100.978C117.216 99.4227 118.469 98.1329 120.001 97.256C121.602 96.3519 123.417 95.8912 125.256 95.9216C127.013 95.8758 128.748 96.3183 130.267 97.1996C131.672 98.0504 132.798 99.2915 133.507 100.771C134.285 102.415 134.672 104.216 134.637 106.034C134.643 106.254 134.602 106.474 134.518 106.678C134.434 106.882 134.307 107.066 134.147 107.218ZM120.792 100.658C119.624 101.707 118.858 103.129 118.626 104.68H131.171C131.022 103.164 130.357 101.745 129.287 100.658C128.257 99.6559 126.913 99.1547 125.256 99.1542C123.423 99.1542 121.935 99.6555 120.792 100.658Z" fill="#608F3E"/>
<path d="M67.2703 131.602C67.2967 131.629 67.3173 131.661 67.3308 131.696C67.3444 131.731 67.3506 131.768 67.3492 131.806V133.106C67.3513 133.144 67.3446 133.182 67.3295 133.217C67.3144 133.252 67.2913 133.283 67.2621 133.307C66.9293 133.578 66.5215 133.741 66.0932 133.774C65.665 133.807 65.2368 133.709 64.8661 133.492C64.547 133.302 64.285 133.029 64.1073 132.704C63.9212 132.365 63.8256 131.985 63.8298 131.599C63.8258 131.216 63.9214 130.838 64.1073 130.503C64.2859 130.178 64.5477 129.905 64.8661 129.714C65.1865 129.52 65.5548 129.419 65.9295 129.423C66.1724 129.418 66.4144 129.455 66.6449 129.532C66.8674 129.617 67.0741 129.738 67.2567 129.891C67.2941 129.916 67.3241 129.951 67.3437 129.992C67.3591 130.03 67.3665 130.072 67.3656 130.114C67.3664 130.148 67.3598 130.181 67.3462 130.212C67.3325 130.243 67.3122 130.271 67.2867 130.293C67.2355 130.34 67.1684 130.365 67.099 130.364C67.031 130.363 66.9654 130.338 66.9141 130.293C66.785 130.179 66.6381 130.086 66.479 130.019C66.3026 129.957 66.1163 129.928 65.9295 129.934C65.6532 129.932 65.3823 130.01 65.1489 130.157C64.9106 130.307 64.7156 130.516 64.5832 130.764C64.4458 131.021 64.3739 131.309 64.3739 131.6C64.3739 131.892 64.4458 132.179 64.5832 132.437C64.7162 132.684 64.9111 132.892 65.1489 133.041C65.3823 133.188 65.6533 133.266 65.9295 133.264C66.242 133.261 66.5467 133.167 66.8053 132.992V132.024H66.0546C65.9801 132.027 65.9071 132.001 65.8506 131.953C65.8258 131.93 65.8059 131.902 65.7924 131.871C65.7788 131.84 65.7718 131.807 65.7718 131.773C65.7718 131.739 65.7788 131.706 65.7924 131.675C65.8059 131.644 65.8258 131.616 65.8506 131.594C65.9071 131.545 65.9801 131.52 66.0546 131.523H67.0719C67.1086 131.522 67.1451 131.528 67.1792 131.542C67.2134 131.555 67.2443 131.576 67.2703 131.602Z" fill="#03592D"/>
<path d="M17.1057 132.704C17.2834 133.029 17.5454 133.302 17.8645 133.492C18.1855 133.684 18.5536 133.784 18.9279 133.78C19.4141 133.784 19.886 133.617 20.2605 133.307C20.3128 133.256 20.3438 133.187 20.3473 133.114C20.3508 133.041 20.3267 132.969 20.2796 132.913C20.258 132.889 20.2315 132.87 20.2019 132.857C20.1723 132.845 20.1404 132.839 20.1082 132.839C20.043 132.842 19.9803 132.865 19.9287 132.905C19.6443 133.132 19.2922 133.258 18.9279 133.264C18.6516 133.266 18.3807 133.188 18.1473 133.041C17.9095 132.892 17.7146 132.684 17.5816 132.437C17.4442 132.179 17.3723 131.892 17.3723 131.6C17.3723 131.309 17.4442 131.021 17.5816 130.764C17.714 130.516 17.909 130.307 18.1473 130.157C18.3807 130.01 18.6516 129.932 18.9279 129.934C19.1147 129.928 19.301 129.957 19.4773 130.019C19.6364 130.086 19.7834 130.179 19.9125 130.293C19.9655 130.339 20.0329 130.364 20.1028 130.364C20.1703 130.365 20.2356 130.339 20.2851 130.293C20.3106 130.271 20.3309 130.243 20.3446 130.212C20.3582 130.181 20.3648 130.148 20.364 130.114C20.3649 130.072 20.3575 130.03 20.3421 129.992C20.3225 129.951 20.2925 129.916 20.2551 129.891C20.0725 129.738 19.8658 129.617 19.6433 129.532C19.4128 129.455 19.1708 129.418 18.9279 129.423C18.5532 129.419 18.1849 129.52 17.8645 129.714C17.5461 129.905 17.2842 130.178 17.1057 130.503C16.9198 130.838 16.8242 131.216 16.8282 131.599C16.824 131.985 16.9196 132.365 17.1057 132.704Z" fill="#03592D"/>
<path d="M13.2219 133.645C13.1953 133.618 13.1743 133.587 13.1603 133.552C13.1462 133.518 13.1395 133.481 13.1403 133.443V129.76C13.139 129.722 13.1455 129.685 13.1596 129.65C13.1736 129.615 13.1948 129.583 13.2219 129.556C13.2484 129.53 13.2799 129.51 13.3145 129.496C13.3491 129.483 13.386 129.476 13.4231 129.477H15.8818C15.9185 129.476 15.9552 129.481 15.9898 129.494C16.0243 129.506 16.056 129.526 16.083 129.551C16.1085 129.576 16.1284 129.606 16.1415 129.639C16.1546 129.673 16.1606 129.708 16.1591 129.744C16.1604 129.778 16.1543 129.813 16.1412 129.845C16.1281 129.877 16.1082 129.905 16.083 129.929C16.0277 129.978 15.9555 130.003 15.8818 130H13.7059V131.322H15.2672C15.3404 131.319 15.4116 131.345 15.4656 131.395C15.4906 131.419 15.5104 131.449 15.5239 131.481C15.5375 131.513 15.5445 131.548 15.5445 131.583C15.5445 131.618 15.5375 131.652 15.5239 131.684C15.5104 131.717 15.4906 131.746 15.4656 131.77C15.4117 131.82 15.3404 131.846 15.2672 131.844H13.7059V133.204H15.8818C15.9555 133.201 16.0277 133.226 16.083 133.275C16.1082 133.298 16.1281 133.327 16.1412 133.359C16.1543 133.391 16.1604 133.425 16.1591 133.46C16.1606 133.495 16.1546 133.531 16.1415 133.564C16.1284 133.597 16.1085 133.628 16.083 133.653C16.056 133.678 16.0243 133.697 15.9898 133.71C15.9553 133.722 15.9185 133.728 15.8818 133.726H13.4231C13.3858 133.727 13.3486 133.72 13.314 133.706C13.2794 133.692 13.248 133.671 13.2219 133.645Z" fill="#03592D"/>
<path d="M12.3653 129.551C12.4031 129.587 12.4289 129.634 12.4396 129.686C12.4502 129.737 12.445 129.79 12.4248 129.839C12.4045 129.887 12.3701 129.929 12.326 129.957C12.2819 129.986 12.2302 130.001 12.1776 130H11.0082V133.443C11.0086 133.481 11.0016 133.518 10.9875 133.552C10.9735 133.587 10.9527 133.618 10.9264 133.645C10.9001 133.671 10.8688 133.692 10.8343 133.707C10.7998 133.721 10.7628 133.729 10.7254 133.729C10.688 133.729 10.651 133.721 10.6165 133.707C10.5819 133.692 10.5506 133.671 10.5243 133.645C10.498 133.618 10.4773 133.587 10.4632 133.552C10.4492 133.518 10.4421 133.481 10.4425 133.443V130H9.26747C9.23262 130 9.19797 129.994 9.16556 129.981C9.13314 129.969 9.10361 129.95 9.0787 129.925C9.05378 129.901 9.03399 129.872 9.02048 129.84C9.00696 129.808 9 129.773 9 129.739C9 129.704 9.00696 129.669 9.02048 129.637C9.03399 129.605 9.05378 129.576 9.0787 129.552C9.10361 129.527 9.13314 129.508 9.16556 129.496C9.19797 129.483 9.23262 129.477 9.26747 129.477H12.1776C12.2123 129.476 12.2468 129.482 12.2791 129.495C12.3113 129.507 12.3407 129.526 12.3653 129.551Z" fill="#03592D"/>
<path d="M21.4054 133.647C21.3791 133.62 21.3585 133.589 21.345 133.553C21.3315 133.518 21.3252 133.481 21.3267 133.443V129.76C21.3252 129.723 21.3315 129.685 21.345 129.65C21.3586 129.615 21.3791 129.583 21.4054 129.556C21.4313 129.53 21.4623 129.51 21.4965 129.496C21.5307 129.483 21.5672 129.476 21.604 129.477C21.6457 129.478 21.6867 129.488 21.7237 129.507C21.7608 129.525 21.794 129.55 21.8216 129.581L24.1932 132.736V129.76C24.1919 129.722 24.1984 129.685 24.2125 129.65C24.2265 129.615 24.2477 129.583 24.2748 129.556C24.3013 129.53 24.3328 129.51 24.3674 129.496C24.402 129.483 24.4389 129.476 24.476 129.477C24.5128 129.476 24.5494 129.483 24.5835 129.496C24.6177 129.51 24.6487 129.53 24.6746 129.556C24.7009 129.583 24.7215 129.615 24.7351 129.65C24.7486 129.685 24.7549 129.723 24.7535 129.76V133.443C24.7549 133.481 24.7487 133.518 24.7351 133.553C24.7215 133.589 24.701 133.62 24.6746 133.647C24.6487 133.673 24.6177 133.694 24.5835 133.707C24.5494 133.721 24.5128 133.727 24.476 133.726C24.434 133.726 24.3925 133.718 24.3537 133.702C24.315 133.688 24.2817 133.662 24.2584 133.628L21.8869 130.473V133.443C21.8879 133.481 21.8814 133.517 21.8678 133.552C21.8543 133.586 21.8339 133.618 21.808 133.645C21.7541 133.696 21.6822 133.726 21.6073 133.726C21.5323 133.727 21.4601 133.699 21.4054 133.647Z" fill="#03592D"/>
<path fill-rule="evenodd" clip-rule="evenodd" d="M25.9937 132.728C26.1691 133.054 26.4343 133.323 26.758 133.503C27.1038 133.685 27.4889 133.78 27.8798 133.78C28.2708 133.78 28.6559 133.685 29.0017 133.503C29.3245 133.322 29.5895 133.053 29.766 132.728C29.9464 132.379 30.0406 131.993 30.0406 131.6C30.0406 131.208 29.9464 130.821 29.766 130.473C29.5883 130.148 29.3225 129.881 28.999 129.7C28.6537 129.518 28.2691 129.423 27.8785 129.423C27.4879 129.423 27.1032 129.518 26.758 129.7C26.4348 129.88 26.1697 130.148 25.9937 130.473C25.8149 130.822 25.7217 131.208 25.7217 131.6C25.7217 131.992 25.8149 132.379 25.9937 132.728ZM29.2901 132.448C29.1566 132.697 28.9571 132.905 28.7134 133.049C28.4599 133.193 28.173 133.269 27.8811 133.269C27.5893 133.269 27.3024 133.193 27.0489 133.049C26.8052 132.905 26.6058 132.697 26.4724 132.448C26.3366 132.185 26.2657 131.894 26.2657 131.599C26.2657 131.304 26.3366 131.013 26.4724 130.75C26.6049 130.502 26.8035 130.295 27.0462 130.152C27.3013 130.009 27.5888 129.934 27.8811 129.934C28.1735 129.934 28.461 130.009 28.7161 130.152C28.9588 130.295 29.1574 130.502 29.2901 130.75C29.4259 131.013 29.4968 131.304 29.4968 131.599C29.4968 131.894 29.4259 132.185 29.2901 132.448Z" fill="#03592D"/>
<path d="M31.0821 133.645C31.0562 133.618 31.0359 133.586 31.0223 133.552C31.0088 133.517 31.0024 133.48 31.0033 133.443V129.76C31.0024 129.723 31.0092 129.686 31.0232 129.651C31.0373 129.617 31.0582 129.585 31.0849 129.559C31.1101 129.533 31.1406 129.512 31.1742 129.498C31.2079 129.484 31.2441 129.477 31.2806 129.477C31.318 129.477 31.355 129.484 31.3896 129.498C31.4242 129.512 31.4556 129.533 31.4819 129.559C31.5083 129.586 31.5291 129.617 31.5432 129.651C31.5572 129.686 31.5641 129.723 31.5636 129.76V133.16H33.5326C33.57 133.16 33.6071 133.167 33.6417 133.181C33.6763 133.195 33.7078 133.216 33.7343 133.243C33.7609 133.269 33.7819 133.3 33.7963 133.335C33.8107 133.369 33.8181 133.406 33.8181 133.443C33.8181 133.481 33.8107 133.518 33.7963 133.552C33.7819 133.586 33.7609 133.618 33.7343 133.644C33.7078 133.67 33.6763 133.691 33.6417 133.705C33.6071 133.719 33.57 133.726 33.5326 133.726H31.2806C31.2436 133.727 31.2068 133.721 31.1726 133.706C31.1384 133.692 31.1076 133.671 31.0821 133.645Z" fill="#03592D"/>
<path fill-rule="evenodd" clip-rule="evenodd" d="M34.267 132.728C34.4424 133.054 34.7076 133.323 35.0313 133.503C35.3771 133.685 35.7622 133.78 36.1532 133.78C36.5441 133.78 36.9292 133.685 37.275 133.503C37.5979 133.322 37.8628 133.053 38.0393 132.728C38.2198 132.379 38.314 131.993 38.314 131.6C38.314 131.208 38.2198 130.821 38.0393 130.473C37.8617 130.148 37.5958 129.881 37.2723 129.7C36.9271 129.518 36.5424 129.423 36.1518 129.423C35.7613 129.423 35.3766 129.518 35.0313 129.7C34.7082 129.88 34.4431 130.148 34.267 130.473C34.0883 130.822 33.995 131.208 33.995 131.6C33.995 131.992 34.0883 132.379 34.267 132.728ZM37.5634 132.448C37.4299 132.697 37.2305 132.905 36.9868 133.049C36.7332 133.193 36.4464 133.269 36.1545 133.269C35.8626 133.269 35.5758 133.193 35.3222 133.049C35.0785 132.905 34.8791 132.697 34.7457 132.448C34.6099 132.185 34.539 131.894 34.539 131.599C34.539 131.304 34.6099 131.013 34.7457 130.75C34.8783 130.502 35.0768 130.295 35.3196 130.152C35.5746 130.009 35.8621 129.934 36.1545 129.934C36.4469 129.934 36.7344 130.009 36.9894 130.152C37.2322 130.295 37.4308 130.502 37.5634 130.75C37.6992 131.013 37.7701 131.304 37.7701 131.599C37.7701 131.894 37.6992 132.185 37.5634 132.448Z" fill="#03592D"/>
<path d="M42.4124 131.602C42.4388 131.629 42.4594 131.661 42.473 131.696C42.4865 131.731 42.4928 131.768 42.4913 131.806V133.106C42.4935 133.144 42.4867 133.182 42.4716 133.217C42.4565 133.252 42.4335 133.283 42.4043 133.307C42.0715 133.578 41.6636 133.741 41.2354 133.774C40.8071 133.807 40.379 133.709 40.0083 133.492C39.6892 133.302 39.4271 133.029 39.2495 132.704C39.0633 132.365 38.9678 131.985 38.972 131.599C38.968 131.216 39.0636 130.838 39.2495 130.503C39.428 130.178 39.6899 129.905 40.0083 129.714C40.3287 129.52 40.6969 129.419 41.0716 129.423C41.3146 129.418 41.5566 129.455 41.787 129.532C42.0095 129.617 42.2163 129.738 42.3988 129.891C42.4362 129.916 42.4662 129.951 42.4859 129.992C42.5013 130.03 42.5087 130.072 42.5077 130.114C42.5086 130.148 42.502 130.181 42.4883 130.212C42.4747 130.243 42.4544 130.271 42.4288 130.293C42.3776 130.34 42.3105 130.365 42.2412 130.364C42.1731 130.363 42.1076 130.338 42.0562 130.293C41.9272 130.179 41.7802 130.086 41.6211 130.019C41.4448 129.957 41.2585 129.928 41.0716 129.934C40.7954 129.932 40.5244 130.01 40.2911 130.157C40.0528 130.307 39.8577 130.516 39.7254 130.764C39.5879 131.021 39.516 131.309 39.516 131.6C39.516 131.892 39.5879 132.179 39.7254 132.437C39.8583 132.684 40.0533 132.892 40.2911 133.041C40.5245 133.188 40.7954 133.266 41.0716 133.264C41.3841 133.261 41.6889 133.167 41.9475 132.992V132.024H41.1968C41.1222 132.027 41.0493 132.001 40.9927 131.953C40.9679 131.93 40.9481 131.902 40.9345 131.871C40.921 131.84 40.914 131.807 40.914 131.773C40.914 131.739 40.921 131.706 40.9345 131.675C40.9481 131.644 40.9679 131.616 40.9927 131.594C41.0493 131.545 41.1222 131.52 41.1968 131.523H42.214C42.2507 131.522 42.2873 131.528 42.3214 131.542C42.3555 131.555 42.3865 131.576 42.4124 131.602Z" fill="#03592D"/>
<path d="M43.4904 133.552C43.5044 133.587 43.5254 133.618 43.552 133.645C43.6064 133.697 43.679 133.726 43.7546 133.726C43.8302 133.726 43.9029 133.697 43.9573 133.645C43.9832 133.618 44.0035 133.586 44.017 133.552C44.0305 133.517 44.037 133.48 44.036 133.443V129.76C44.0378 129.703 44.0224 129.648 43.9917 129.6C43.961 129.552 43.9165 129.515 43.8641 129.492C43.8117 129.47 43.7539 129.465 43.6982 129.476C43.6424 129.487 43.5915 129.515 43.552 129.556C43.5249 129.583 43.5037 129.615 43.4897 129.65C43.4756 129.685 43.4691 129.722 43.4704 129.76V133.443C43.4696 133.481 43.4763 133.518 43.4904 133.552Z" fill="#03592D"/>
<path fill-rule="evenodd" clip-rule="evenodd" d="M48.404 133.449C48.4045 133.485 48.3975 133.521 48.3835 133.555C48.3695 133.589 48.3487 133.619 48.3224 133.644C48.2963 133.671 48.2649 133.692 48.2303 133.706C48.1957 133.72 48.1586 133.727 48.1212 133.726C48.0662 133.726 48.0123 133.71 47.9662 133.68C47.9179 133.65 47.8807 133.605 47.8601 133.552L47.5555 132.791H45.6027L45.2926 133.552C45.2692 133.604 45.2315 133.649 45.1839 133.68C45.1388 133.71 45.0858 133.726 45.0315 133.726C44.9944 133.727 44.9574 133.72 44.9232 133.706C44.8889 133.691 44.8582 133.669 44.8331 133.642C44.7817 133.589 44.7534 133.517 44.7542 133.443C44.7556 133.4 44.7648 133.358 44.7814 133.318L46.3099 129.668C46.328 129.612 46.3637 129.563 46.4117 129.529C46.4596 129.495 46.5174 129.476 46.5764 129.477C46.6358 129.474 46.6945 129.492 46.7429 129.526C46.7913 129.561 46.8265 129.611 46.8429 129.668L48.3768 133.329C48.3929 133.367 48.4021 133.407 48.404 133.449ZM45.7932 132.323H47.365L46.5873 130.386L45.7932 132.323Z" fill="#03592D"/>
<path d="M50.7901 133.552C50.8041 133.587 50.8251 133.618 50.8517 133.645C50.8778 133.671 50.9092 133.692 50.9438 133.706C50.9784 133.72 51.0156 133.727 51.0529 133.726H53.5116C53.5483 133.728 53.5851 133.722 53.6196 133.71C53.6542 133.697 53.6858 133.678 53.7128 133.653C53.7383 133.628 53.7582 133.597 53.7713 133.564C53.7844 133.531 53.7904 133.495 53.7889 133.46C53.7902 133.425 53.7841 133.391 53.771 133.359C53.7579 133.327 53.738 133.298 53.7128 133.275C53.6575 133.226 53.5853 133.201 53.5116 133.204H51.3357V131.844H52.897C52.9702 131.846 53.0415 131.82 53.0954 131.77C53.1204 131.746 53.1402 131.717 53.1537 131.684C53.1673 131.652 53.1743 131.618 53.1743 131.583C53.1743 131.548 53.1673 131.513 53.1537 131.481C53.1402 131.449 53.1204 131.419 53.0954 131.395C53.0414 131.345 52.9702 131.319 52.897 131.322H51.3357V130H53.5116C53.5853 130.003 53.6575 129.978 53.7128 129.929C53.738 129.905 53.7579 129.877 53.771 129.845C53.7841 129.813 53.7902 129.778 53.7889 129.744C53.7904 129.708 53.7844 129.673 53.7713 129.639C53.7582 129.606 53.7383 129.576 53.7128 129.551C53.6858 129.526 53.6541 129.506 53.6196 129.494C53.585 129.481 53.5483 129.476 53.5116 129.477H51.0529C51.0158 129.476 50.9789 129.483 50.9443 129.496C50.9097 129.51 50.8782 129.53 50.8517 129.556C50.8246 129.583 50.8034 129.615 50.7894 129.65C50.7753 129.685 50.7688 129.722 50.7701 129.76V133.443C50.7693 133.481 50.776 133.518 50.7901 133.552Z" fill="#03592D"/>
<path d="M56.7127 133.541C56.4482 133.407 56.2379 133.186 56.1171 132.916C56.1011 132.881 56.0919 132.844 56.0899 132.807C56.0898 132.78 56.0951 132.753 56.1053 132.729C56.1156 132.704 56.1306 132.682 56.1496 132.663C56.1941 132.619 56.2511 132.589 56.3128 132.578C56.3306 132.574 56.3489 132.572 56.3672 132.573C56.4265 132.573 56.4842 132.591 56.5331 132.625C56.585 132.658 56.6258 132.707 56.6502 132.763C56.7345 132.923 56.8706 133.05 57.0362 133.122C57.2335 133.221 57.4518 133.272 57.6727 133.269C57.9166 133.277 58.1573 133.212 58.3636 133.081C58.4518 133.028 58.5243 132.952 58.5739 132.862C58.6236 132.772 58.6486 132.67 58.6463 132.567C58.6471 132.467 58.6262 132.367 58.5849 132.276C58.5435 132.184 58.4829 132.103 58.407 132.037C58.1995 131.871 57.9438 131.777 57.6782 131.768C57.2923 131.749 56.9218 131.611 56.6175 131.373C56.4947 131.274 56.3961 131.148 56.3292 131.006C56.2623 130.863 56.2288 130.707 56.2313 130.549C56.2263 130.332 56.2965 130.12 56.4299 129.948C56.5723 129.772 56.7605 129.638 56.9737 129.562C57.2216 129.47 57.4844 129.425 57.7488 129.428C58.0242 129.419 58.2968 129.485 58.5376 129.619C58.7599 129.754 58.9464 129.941 59.0815 130.163C59.1214 130.22 59.1441 130.288 59.1468 130.359C59.1469 130.398 59.1369 130.436 59.1179 130.471C59.0988 130.505 59.0714 130.534 59.0381 130.555C58.9956 130.581 58.9465 130.594 58.8967 130.593C58.8431 130.593 58.7905 130.579 58.7443 130.552C58.6982 130.526 58.6604 130.487 58.6354 130.44C58.5471 130.287 58.4207 130.158 58.2683 130.068C58.0971 129.977 57.9047 129.932 57.7108 129.94C57.4771 129.929 57.2451 129.985 57.0417 130.1C56.961 130.148 56.8946 130.216 56.8495 130.298C56.8045 130.379 56.7826 130.472 56.7861 130.565C56.7851 130.656 56.8052 130.746 56.8449 130.829C56.8845 130.911 56.9425 130.982 57.0145 131.039C57.2579 131.196 57.5405 131.283 57.8305 131.289C58.2018 131.307 58.5571 131.445 58.8421 131.683C58.9612 131.794 59.0549 131.928 59.1169 132.078C59.1789 132.228 59.2076 132.389 59.2012 132.551C59.2076 132.792 59.1329 133.029 58.989 133.223C58.8442 133.412 58.6492 133.557 58.4261 133.642C58.186 133.735 57.9303 133.782 57.6727 133.78C57.3374 133.785 57.0067 133.702 56.7127 133.541Z" fill="#03592D"/>
<path d="M60.162 133.552C60.1761 133.587 60.1971 133.618 60.2237 133.645C60.2498 133.671 60.2812 133.692 60.3158 133.706C60.3504 133.72 60.3876 133.727 60.4249 133.726H62.8836C62.9203 133.728 62.957 133.722 62.9916 133.71C63.0261 133.697 63.0578 133.678 63.0848 133.653C63.1103 133.628 63.1302 133.597 63.1433 133.564C63.1564 133.531 63.1624 133.495 63.1609 133.46C63.1622 133.425 63.1561 133.391 63.143 133.359C63.1298 133.327 63.11 133.298 63.0848 133.275C63.0295 133.226 62.9573 133.201 62.8836 133.204H60.7077V131.844H62.2689C62.3422 131.846 62.4134 131.82 62.4674 131.77C62.4923 131.746 62.5122 131.717 62.5257 131.684C62.5393 131.652 62.5463 131.618 62.5463 131.583C62.5463 131.548 62.5393 131.513 62.5257 131.481C62.5122 131.449 62.4923 131.419 62.4674 131.395C62.4134 131.345 62.3422 131.319 62.2689 131.322H60.7077V130H62.8836C62.9573 130.003 63.0295 129.978 63.0848 129.929C63.11 129.905 63.1298 129.877 63.143 129.845C63.1561 129.813 63.1622 129.778 63.1609 129.744C63.1624 129.708 63.1564 129.673 63.1433 129.639C63.1302 129.606 63.1103 129.576 63.0848 129.551C63.0578 129.526 63.0261 129.506 62.9916 129.494C62.957 129.481 62.9203 129.476 62.8836 129.477H60.4249C60.3878 129.476 60.3509 129.483 60.3163 129.496C60.2817 129.51 60.2502 129.53 60.2237 129.556C60.1966 129.583 60.1754 129.615 60.1614 129.65C60.1473 129.685 60.1408 129.722 60.1421 129.76V133.443C60.1412 133.481 60.148 133.518 60.162 133.552Z" fill="#03592D"/>
<path d="M68.5541 133.084C68.7105 133.318 68.929 133.503 69.1851 133.62C69.4739 133.753 69.7891 133.819 70.107 133.813C70.4163 133.819 70.7226 133.753 71.0021 133.62C71.2533 133.501 71.4661 133.315 71.6164 133.081C71.7643 132.848 71.8409 132.577 71.837 132.301V129.76C71.8384 129.723 71.8322 129.685 71.8186 129.65C71.8051 129.615 71.7846 129.583 71.7583 129.556C71.7323 129.53 71.7012 129.51 71.667 129.496C71.6329 129.483 71.5963 129.476 71.5595 129.477C71.5224 129.476 71.4855 129.483 71.4509 129.496C71.4163 129.51 71.3848 129.53 71.3583 129.556C71.3312 129.583 71.3099 129.615 71.2958 129.65C71.2817 129.685 71.2751 129.722 71.2764 129.76V132.301C71.2789 132.484 71.227 132.664 71.1271 132.818C71.0241 132.973 70.88 133.096 70.7109 133.174C70.5219 133.262 70.3154 133.305 70.107 133.302C69.8907 133.306 69.6763 133.262 69.4788 133.174C69.3054 133.097 69.1567 132.974 69.0492 132.818C68.9457 132.665 68.8916 132.485 68.894 132.301V129.76C68.8958 129.703 68.8804 129.648 68.8497 129.6C68.819 129.552 68.7745 129.515 68.7221 129.492C68.6698 129.47 68.6119 129.465 68.5562 129.476C68.5005 129.487 68.4495 129.515 68.41 129.556C68.383 129.583 68.3617 129.615 68.3477 129.65C68.3336 129.685 68.3271 129.722 68.3285 129.76V132.301C68.3238 132.579 68.4024 132.851 68.5541 133.084Z" fill="#03592D"/>
<path fill-rule="evenodd" clip-rule="evenodd" d="M75.8131 133.471C75.814 133.504 75.8079 133.538 75.7952 133.569C75.7826 133.6 75.7637 133.629 75.7397 133.653C75.7133 133.678 75.6821 133.697 75.6479 133.71C75.6138 133.722 75.5774 133.728 75.541 133.726C75.4917 133.728 75.443 133.716 75.4 133.692C75.3569 133.668 75.3211 133.633 75.2963 133.59L74.3608 132.089H73.5665V133.443C73.5675 133.48 73.561 133.517 73.5475 133.552C73.534 133.586 73.5137 133.618 73.4878 133.645C73.4334 133.697 73.3607 133.726 73.2851 133.726C73.2095 133.726 73.1369 133.697 73.0825 133.645C73.0559 133.618 73.0349 133.587 73.0209 133.552C73.0068 133.518 73.0001 133.481 73.0009 133.443V129.76C72.9996 129.722 73.0061 129.685 73.0202 129.65C73.0342 129.615 73.0554 129.583 73.0825 129.556C73.109 129.53 73.1405 129.51 73.1751 129.496C73.2097 129.483 73.2466 129.476 73.2837 129.477H74.2627C74.5133 129.473 74.761 129.531 74.9835 129.646C75.1905 129.753 75.3623 129.918 75.4785 130.119C75.5987 130.332 75.6598 130.572 75.6553 130.816C75.6602 131.056 75.5935 131.292 75.4638 131.495C75.334 131.697 75.147 131.856 74.9264 131.953L75.7588 133.291C75.7937 133.344 75.8125 133.407 75.8131 133.471ZM74.2627 131.566C74.4849 131.575 74.7023 131.5 74.872 131.357C74.9499 131.29 75.0118 131.207 75.0532 131.113C75.0946 131.02 75.1145 130.918 75.1113 130.816C75.1151 130.706 75.0958 130.598 75.0545 130.496C75.0133 130.395 74.9511 130.304 74.872 130.228C74.7906 130.152 74.6949 130.092 74.5903 130.053C74.4857 130.014 74.3743 129.996 74.2627 130H73.5665V131.566H74.2627Z" fill="#03592D"/>
<path fill-rule="evenodd" clip-rule="evenodd" d="M79.6982 133.555C79.7122 133.521 79.7192 133.485 79.7187 133.449C79.7168 133.407 79.7076 133.367 79.6915 133.329L78.1576 129.668C78.1412 129.611 78.106 129.561 78.0576 129.526C78.0092 129.492 77.9505 129.474 77.8911 129.477C77.8321 129.476 77.7743 129.494 77.7263 129.529C77.6784 129.563 77.6427 129.612 77.6245 129.668L76.0959 133.318C76.0794 133.358 76.0702 133.4 76.0687 133.443C76.0679 133.517 76.0963 133.589 76.1478 133.642C76.1729 133.669 76.2036 133.691 76.2379 133.706C76.2721 133.72 76.309 133.727 76.3462 133.726C76.4005 133.726 76.4536 133.71 76.4987 133.68C76.5462 133.648 76.5839 133.604 76.6074 133.552L76.9174 132.791H78.87L79.1747 133.552C79.1954 133.605 79.2326 133.65 79.2809 133.68C79.327 133.71 79.3808 133.726 79.4359 133.726C79.4733 133.727 79.5104 133.72 79.545 133.706C79.5796 133.692 79.611 133.671 79.6371 133.644C79.6634 133.619 79.6842 133.589 79.6982 133.555ZM78.6797 132.323H77.1077L77.902 130.386L78.6797 132.323Z" fill="#03592D"/>
<path d="M80.4939 133.647C80.4676 133.62 80.447 133.589 80.4335 133.553C80.4199 133.518 80.4137 133.481 80.4152 133.443V129.76C80.4137 129.723 80.42 129.685 80.4335 129.65C80.4471 129.615 80.4676 129.583 80.4939 129.556C80.5351 129.516 80.588 129.489 80.6452 129.481C80.7023 129.472 80.7608 129.481 80.8123 129.507C80.8494 129.525 80.8826 129.55 80.9101 129.581L83.2817 132.736V129.76C83.2804 129.722 83.2869 129.685 83.301 129.65C83.315 129.615 83.3362 129.583 83.3633 129.556C83.3898 129.53 83.4213 129.51 83.4559 129.496C83.4905 129.483 83.5274 129.476 83.5645 129.477C83.6012 129.476 83.6378 129.483 83.6719 129.496C83.7061 129.51 83.737 129.53 83.7629 129.556C83.7893 129.583 83.81 129.615 83.8236 129.65C83.8372 129.685 83.8434 129.723 83.842 129.76V133.443C83.8435 133.481 83.8372 133.518 83.8236 133.554C83.81 133.589 83.7894 133.621 83.7629 133.647C83.737 133.673 83.7061 133.694 83.6719 133.707C83.6378 133.721 83.6012 133.727 83.5645 133.726C83.5225 133.726 83.4809 133.717 83.442 133.702C83.4034 133.688 83.3701 133.662 83.347 133.628L80.9754 130.473V133.443C80.9764 133.481 80.9699 133.517 80.9563 133.552C80.9427 133.587 80.9223 133.618 80.8964 133.645C80.8425 133.696 80.7706 133.726 80.6957 133.726C80.6208 133.727 80.5485 133.698 80.4939 133.647Z" fill="#03592D"/>
<path d="M88.1833 132.857C88.1538 132.845 88.1218 132.839 88.0897 132.839C88.0245 132.842 87.9618 132.865 87.9103 132.905C87.6259 133.132 87.2738 133.258 86.9095 133.264C86.6332 133.266 86.3623 133.188 86.1289 133.041C85.8911 132.892 85.6961 132.684 85.5631 132.437C85.4256 132.179 85.3537 131.892 85.3537 131.6C85.3537 131.309 85.4256 131.021 85.5631 130.764C85.6954 130.516 85.8905 130.307 86.1289 130.157C86.3623 130.01 86.6332 129.932 86.9095 129.934C87.0963 129.928 87.2825 129.957 87.4588 130.019C87.6178 130.086 87.7648 130.179 87.8938 130.293C87.9469 130.339 88.0144 130.364 88.0844 130.364C88.1519 130.365 88.2171 130.339 88.2665 130.293C88.2921 130.271 88.3123 130.243 88.326 130.212C88.3396 130.181 88.3462 130.148 88.3453 130.114C88.3462 130.072 88.3389 130.03 88.3237 129.992C88.3039 129.951 88.2739 129.916 88.2365 129.891C88.054 129.738 87.8472 129.617 87.6247 129.532C87.3943 129.455 87.1524 129.418 86.9095 129.423C86.5347 129.419 86.1663 129.52 85.8458 129.714C85.5275 129.905 85.2657 130.178 85.0872 130.503C84.9013 130.838 84.8057 131.216 84.8097 131.599C84.8065 131.955 84.8876 132.306 85.0462 132.625C85.1972 132.93 85.4203 133.194 85.6965 133.394C85.9706 133.593 86.2903 133.721 86.6264 133.764L86.6101 133.808C86.5924 133.853 86.5832 133.901 86.5829 133.949C86.5814 133.978 86.5868 134.007 86.5986 134.034C86.6105 134.06 86.6284 134.083 86.6511 134.102C86.7115 134.144 86.7817 134.17 86.8551 134.178C86.9247 134.184 86.9904 134.213 87.0426 134.259C87.0818 134.302 87.1024 134.359 87.0998 134.417C87.1004 134.444 87.0943 134.471 87.082 134.495C87.0696 134.52 87.0515 134.54 87.0292 134.556C86.9764 134.592 86.9134 134.61 86.8495 134.608C86.7828 134.609 86.7169 134.592 86.6592 134.559C86.6047 134.526 86.5627 134.476 86.5395 134.417C86.5276 134.375 86.5029 134.338 86.4689 134.311C86.4347 134.29 86.3948 134.279 86.3545 134.281C86.3208 134.281 86.2873 134.288 86.2564 134.302C86.2255 134.315 86.1978 134.335 86.1752 134.36C86.1509 134.384 86.1317 134.412 86.1186 134.443C86.1055 134.475 86.0988 134.508 86.0989 134.542C86.103 134.61 86.1247 134.675 86.162 134.731C86.1992 134.787 86.2506 134.833 86.3111 134.863C86.4719 134.959 86.6571 135.006 86.8442 134.999C86.9889 135.002 87.1326 134.974 87.2657 134.918C87.3762 134.872 87.4734 134.799 87.5485 134.706C87.6186 134.619 87.6542 134.509 87.6487 134.398C87.6432 134.287 87.5968 134.181 87.5185 134.102C87.4002 134.003 87.2572 133.939 87.1051 133.917L87.1704 133.764C87.5651 133.721 87.9381 133.562 88.2421 133.307C88.2944 133.256 88.3253 133.187 88.3288 133.114C88.3322 133.041 88.308 132.969 88.2609 132.913C88.2393 132.889 88.2129 132.87 88.1833 132.857Z" fill="#03592D"/>
<path fill-rule="evenodd" clip-rule="evenodd" d="M92.512 133.449C92.5125 133.485 92.5056 133.521 92.4915 133.555C92.4775 133.589 92.4567 133.619 92.4305 133.644C92.4043 133.671 92.373 133.692 92.3383 133.706C92.3037 133.72 92.2666 133.727 92.2292 133.726C92.1742 133.726 92.1204 133.71 92.0742 133.68C92.0259 133.65 91.9887 133.605 91.968 133.552L91.6634 132.791H89.7108L89.4008 133.552C89.3772 133.604 89.3395 133.648 89.292 133.68C89.247 133.71 89.1939 133.726 89.1396 133.726C89.1024 133.727 89.0654 133.72 89.0312 133.706C88.997 133.691 88.9663 133.669 88.9411 133.642C88.8896 133.589 88.8612 133.517 88.8621 133.443C88.8635 133.4 88.8727 133.358 88.8893 133.318L90.4179 129.668C90.436 129.612 90.4717 129.563 90.5197 129.529C90.5677 129.494 90.6254 129.476 90.6844 129.477C90.7439 129.474 90.8025 129.492 90.8509 129.526C90.8993 129.561 90.9346 129.611 90.9509 129.668L92.4848 133.329C92.501 133.367 92.5102 133.407 92.512 133.449ZM89.901 132.323H91.4731L90.6953 130.386L89.901 132.323Z" fill="#03592D"/>
<path fill-rule="evenodd" clip-rule="evenodd" d="M94.8982 133.552C94.9123 133.587 94.9333 133.618 94.9599 133.645C95.0143 133.697 95.0869 133.726 95.1625 133.726C95.2381 133.726 95.3108 133.697 95.3652 133.645C95.3911 133.618 95.4113 133.586 95.4249 133.552C95.4384 133.517 95.4449 133.48 95.4439 133.443V132.252H96.2491C96.5003 132.256 96.7483 132.196 96.9697 132.078C97.1772 131.966 97.3488 131.798 97.4646 131.594C97.5849 131.377 97.6459 131.134 97.6415 130.886C97.6458 130.632 97.585 130.381 97.4646 130.157C97.3506 129.947 97.1789 129.774 96.9697 129.657C96.7494 129.535 96.5009 129.473 96.2491 129.477H95.1611C95.124 129.476 95.0871 129.483 95.0525 129.496C95.0179 129.51 94.9865 129.53 94.9599 129.556C94.9328 129.583 94.9116 129.615 94.8976 129.65C94.8835 129.685 94.877 129.722 94.8783 129.76V133.443C94.8774 133.481 94.8842 133.518 94.8982 133.552ZM96.578 131.674C96.4733 131.714 96.3614 131.733 96.2491 131.729H95.4439V130H96.2491C96.3626 129.996 96.4754 130.017 96.5804 130.06C96.6853 130.103 96.78 130.168 96.8581 130.25C96.9381 130.335 97.0004 130.435 97.0415 130.544C97.0826 130.653 97.1016 130.77 97.0975 130.886C97.1014 130.998 97.0822 131.11 97.0411 131.214C96.9999 131.319 96.9376 131.414 96.8581 131.493C96.778 131.571 96.6827 131.633 96.578 131.674Z" fill="#03592D"/>
<path fill-rule="evenodd" clip-rule="evenodd" d="M101.384 133.449C101.384 133.485 101.377 133.521 101.363 133.555C101.349 133.589 101.328 133.619 101.302 133.644C101.276 133.671 101.245 133.692 101.21 133.706C101.175 133.72 101.138 133.727 101.101 133.726C101.046 133.726 100.992 133.71 100.946 133.68C100.898 133.65 100.86 133.605 100.84 133.552L100.535 132.791H98.5823L98.2724 133.552C98.2488 133.604 98.2111 133.648 98.1636 133.68C98.1185 133.71 98.0654 133.726 98.0111 133.726C97.974 133.727 97.937 133.72 97.9028 133.706C97.8685 133.691 97.8378 133.669 97.8127 133.642C97.7612 133.589 97.7328 133.517 97.7337 133.443C97.7351 133.4 97.7443 133.358 97.7609 133.318L99.2895 129.668C99.3076 129.612 99.3433 129.563 99.3913 129.529C99.4392 129.494 99.497 129.476 99.556 129.477C99.6154 129.474 99.6741 129.492 99.7225 129.526C99.7709 129.561 99.8061 129.611 99.8225 129.668L101.356 133.329C101.373 133.367 101.382 133.407 101.384 133.449ZM98.7726 132.323H100.345L99.5669 130.386L98.7726 132.323Z" fill="#03592D"/>
<path fill-rule="evenodd" clip-rule="evenodd" d="M104.874 133.569C104.887 133.538 104.893 133.504 104.892 133.471C104.892 133.407 104.873 133.344 104.838 133.291L104.006 131.953C104.226 131.856 104.413 131.697 104.543 131.495C104.673 131.292 104.739 131.056 104.734 130.816C104.739 130.572 104.678 130.332 104.558 130.119C104.441 129.918 104.27 129.753 104.063 129.646C103.84 129.531 103.592 129.473 103.342 129.477H102.363C102.326 129.476 102.289 129.483 102.254 129.496C102.22 129.51 102.188 129.53 102.162 129.556C102.135 129.583 102.113 129.615 102.099 129.65C102.085 129.685 102.079 129.722 102.08 129.76V133.443C102.079 133.481 102.086 133.518 102.1 133.552C102.114 133.587 102.135 133.618 102.162 133.645C102.216 133.697 102.289 133.726 102.364 133.726C102.44 133.726 102.513 133.697 102.567 133.645C102.593 133.618 102.613 133.586 102.627 133.552C102.64 133.517 102.647 133.48 102.646 133.443V132.089H103.44L104.375 133.59C104.4 133.633 104.436 133.668 104.479 133.692C104.522 133.716 104.571 133.728 104.62 133.726C104.657 133.728 104.693 133.722 104.727 133.71C104.761 133.697 104.792 133.678 104.819 133.653C104.843 133.629 104.862 133.6 104.874 133.569ZM103.951 131.357C103.781 131.5 103.564 131.575 103.342 131.566H102.646V130H103.342C103.453 129.996 103.565 130.014 103.669 130.053C103.774 130.092 103.87 130.152 103.951 130.228C104.03 130.304 104.092 130.395 104.134 130.496C104.175 130.598 104.194 130.706 104.19 130.816C104.194 130.918 104.174 131.02 104.132 131.113C104.091 131.207 104.029 131.29 103.951 131.357Z" fill="#03592D"/>
<path fill-rule="evenodd" clip-rule="evenodd" d="M108.798 133.449C108.798 133.485 108.791 133.521 108.777 133.555C108.763 133.589 108.743 133.619 108.716 133.644C108.69 133.671 108.659 133.692 108.624 133.706C108.59 133.72 108.552 133.727 108.515 133.726C108.46 133.726 108.406 133.71 108.36 133.68C108.312 133.65 108.274 133.605 108.254 133.552L107.949 132.791H105.997L105.687 133.552C105.663 133.604 105.625 133.648 105.578 133.68C105.533 133.71 105.48 133.726 105.425 133.726C105.388 133.727 105.351 133.72 105.317 133.706C105.283 133.691 105.252 133.669 105.227 133.642C105.175 133.589 105.147 133.517 105.148 133.443C105.149 133.4 105.159 133.358 105.175 133.318L106.704 129.668C106.722 129.612 106.757 129.563 106.805 129.529C106.853 129.494 106.911 129.476 106.97 129.477C107.03 129.474 107.088 129.492 107.137 129.526C107.185 129.561 107.22 129.611 107.237 129.668L108.771 133.329C108.787 133.367 108.796 133.407 108.798 133.449ZM106.187 132.323H107.759L106.981 130.386L106.187 132.323Z" fill="#03592D"/>
<path fill-rule="evenodd" clip-rule="evenodd" d="M111.24 132.728C111.416 133.054 111.681 133.323 112.004 133.503C112.35 133.685 112.735 133.78 113.126 133.78C113.517 133.78 113.902 133.685 114.248 133.503C114.571 133.322 114.836 133.053 115.012 132.728C115.193 132.379 115.287 131.993 115.287 131.6C115.287 131.208 115.193 130.821 115.012 130.473C114.835 130.148 114.569 129.881 114.245 129.7C113.9 129.518 113.515 129.423 113.125 129.423C112.734 129.423 112.35 129.518 112.004 129.7C111.681 129.88 111.416 130.148 111.24 130.473C111.061 130.822 110.968 131.208 110.968 131.6C110.968 131.992 111.061 132.379 111.24 132.728ZM114.537 132.448C114.403 132.697 114.204 132.905 113.96 133.049C113.707 133.193 113.42 133.269 113.128 133.269C112.836 133.269 112.549 133.193 112.296 133.049C112.052 132.905 111.852 132.697 111.719 132.448C111.583 132.185 111.512 131.894 111.512 131.599C111.512 131.304 111.583 131.013 111.719 130.75C111.851 130.502 112.05 130.295 112.293 130.152C112.548 130.009 112.835 129.934 113.128 129.934C113.42 129.934 113.708 130.009 113.963 130.152C114.205 130.295 114.404 130.502 114.537 130.75C114.672 131.013 114.743 131.304 114.743 131.599C114.743 131.894 114.672 132.185 114.537 132.448Z" fill="#03592D"/>
<path fill-rule="evenodd" clip-rule="evenodd" d="M121.124 133.449C121.124 133.485 121.117 133.521 121.103 133.555C121.089 133.589 121.068 133.619 121.042 133.644C121.016 133.671 120.985 133.692 120.95 133.706C120.915 133.72 120.878 133.727 120.841 133.726C120.786 133.726 120.732 133.71 120.686 133.68C120.638 133.65 120.6 133.605 120.58 133.552L120.275 132.791H118.322L118.012 133.552C117.989 133.604 117.951 133.648 117.904 133.68C117.859 133.71 117.806 133.726 117.751 133.726C117.714 133.727 117.677 133.72 117.643 133.706C117.609 133.691 117.578 133.669 117.553 133.642C117.501 133.589 117.473 133.517 117.474 133.443C117.475 133.4 117.484 133.358 117.501 133.318L119.03 129.668C119.048 129.612 119.083 129.563 119.131 129.529C119.179 129.494 119.237 129.476 119.296 129.477C119.356 129.474 119.414 129.492 119.463 129.526C119.511 129.561 119.546 129.611 119.563 129.668L121.097 133.329C121.113 133.367 121.122 133.407 121.124 133.449ZM118.513 132.323H120.085L119.307 130.386L118.513 132.323Z" fill="#03592D"/>
<path d="M125.017 131.696C125.003 131.661 124.982 131.629 124.956 131.602C124.93 131.576 124.899 131.555 124.865 131.542C124.831 131.528 124.794 131.522 124.757 131.523H123.74C123.666 131.52 123.593 131.545 123.536 131.594C123.511 131.616 123.492 131.644 123.478 131.675C123.465 131.706 123.458 131.739 123.458 131.773C123.458 131.807 123.465 131.84 123.478 131.871C123.492 131.902 123.511 131.93 123.536 131.953C123.593 132.001 123.666 132.027 123.74 132.024H124.491V132.992C124.232 133.167 123.928 133.261 123.615 133.264C123.339 133.266 123.068 133.188 122.835 133.041C122.597 132.892 122.402 132.684 122.269 132.437C122.131 132.179 122.06 131.892 122.06 131.6C122.06 131.309 122.131 131.021 122.269 130.764C122.401 130.516 122.596 130.307 122.835 130.157C123.068 130.01 123.339 129.932 123.615 129.934C123.802 129.928 123.988 129.957 124.165 130.019C124.324 130.086 124.471 130.179 124.6 130.293C124.651 130.338 124.716 130.363 124.785 130.364C124.854 130.365 124.921 130.34 124.972 130.293C124.998 130.271 125.018 130.243 125.032 130.212C125.045 130.181 125.052 130.148 125.051 130.114C125.052 130.072 125.045 130.03 125.03 129.992C125.01 129.951 124.98 129.916 124.942 129.891C124.76 129.738 124.553 129.617 124.331 129.532C124.1 129.455 123.858 129.418 123.615 129.423C123.241 129.419 122.872 129.52 122.552 129.714C122.233 129.905 121.971 130.178 121.793 130.503C121.607 130.838 121.511 131.216 121.516 131.599C121.511 131.985 121.607 132.365 121.793 132.704C121.971 133.029 122.233 133.302 122.552 133.492C122.922 133.709 123.351 133.807 123.779 133.774C124.207 133.741 124.615 133.578 124.948 133.307C124.977 133.283 125 133.252 125.015 133.217C125.03 133.182 125.037 133.144 125.035 133.106V131.806C125.036 131.768 125.03 131.731 125.017 131.696Z" fill="#03592D"/>
<path fill-rule="evenodd" clip-rule="evenodd" d="M128.826 133.471C128.827 133.504 128.821 133.538 128.808 133.569C128.796 133.6 128.777 133.629 128.753 133.653C128.727 133.678 128.695 133.697 128.661 133.71C128.627 133.722 128.591 133.728 128.554 133.726C128.505 133.728 128.456 133.716 128.413 133.692C128.37 133.668 128.334 133.633 128.31 133.59L127.374 132.089H126.58V133.443C126.581 133.48 126.574 133.517 126.561 133.552C126.547 133.586 126.527 133.618 126.501 133.645C126.447 133.697 126.374 133.726 126.298 133.726C126.223 133.726 126.15 133.697 126.096 133.645C126.069 133.618 126.048 133.587 126.034 133.552C126.02 133.518 126.013 133.481 126.014 133.443V129.76C126.013 129.722 126.019 129.685 126.033 129.65C126.047 129.615 126.069 129.583 126.096 129.556C126.122 129.53 126.154 129.51 126.188 129.496C126.223 129.483 126.26 129.476 126.297 129.477H127.276C127.526 129.473 127.774 129.531 127.997 129.646C128.204 129.753 128.375 129.918 128.492 130.119C128.612 130.332 128.673 130.572 128.669 130.816C128.673 131.056 128.607 131.292 128.477 131.495C128.347 131.697 128.16 131.856 127.94 131.953L128.772 133.291C128.807 133.344 128.826 133.407 128.826 133.471ZM127.276 131.566C127.498 131.575 127.715 131.5 127.885 131.357C127.963 131.29 128.025 131.207 128.066 131.113C128.108 131.02 128.128 130.918 128.125 130.816C128.128 130.706 128.109 130.598 128.068 130.496C128.026 130.395 127.964 130.304 127.885 130.228C127.804 130.152 127.708 130.092 127.603 130.053C127.499 130.014 127.388 129.996 127.276 130H126.58V131.566H127.276Z" fill="#03592D"/>
<path fill-rule="evenodd" clip-rule="evenodd" d="M129.604 132.728C129.779 133.054 130.044 133.323 130.368 133.503C130.714 133.685 131.099 133.78 131.49 133.78C131.881 133.78 132.266 133.685 132.612 133.503C132.935 133.322 133.2 133.053 133.376 132.728C133.557 132.379 133.651 131.993 133.651 131.6C133.651 131.208 133.557 130.821 133.376 130.473C133.199 130.148 132.933 129.881 132.609 129.7C132.264 129.518 131.879 129.423 131.489 129.423C131.098 129.423 130.713 129.518 130.368 129.7C130.045 129.88 129.78 130.148 129.604 130.473C129.425 130.822 129.332 131.208 129.332 131.6C129.332 131.992 129.425 132.379 129.604 132.728ZM132.9 132.448C132.767 132.697 132.567 132.905 132.324 133.049C132.07 133.193 131.783 133.269 131.492 133.269C131.2 133.269 130.913 133.193 130.659 133.049C130.415 132.905 130.216 132.697 130.082 132.448C129.947 132.185 129.876 131.894 129.876 131.599C129.876 131.304 129.947 131.013 130.082 130.75C130.215 130.502 130.414 130.295 130.656 130.152C130.911 130.009 131.199 129.934 131.491 129.934C131.784 129.934 132.071 130.009 132.326 130.152C132.569 130.295 132.768 130.502 132.9 130.75C133.036 131.013 133.107 131.304 133.107 131.599C133.107 131.894 133.036 132.185 132.9 132.448Z" fill="#03592D"/>
</svg>
