<svg width="64" height="60" viewBox="0 0 64 60" fill="none" xmlns="http://www.w3.org/2000/svg">
<path fill-rule="evenodd" clip-rule="evenodd" d="M32.3556 0C34.785 2.60365 37.0547 5.35188 39.1525 8.22962L32.3556 15.029L25.5586 8.22962C27.6556 5.35124 29.9254 2.60297 32.3556 0Z" fill="#A9D053"/>
<path d="M23.4601 11.3C22.0715 13.4405 20.866 15.6944 19.8564 18.0377L30.5276 28.7126V18.3699L23.4601 11.3Z" fill="#608F3E"/>
<path d="M44.8533 18.0377C43.8454 15.6936 42.6398 13.4396 41.2496 11.3L34.1819 18.3702V28.7127L44.8533 18.0377Z" fill="#608F3E"/>
<path d="M32.3115 41.0911C37.4474 41.0911 41.6108 36.9263 41.6108 31.7886C41.6108 26.651 37.4474 22.4861 32.3115 22.4861C27.1757 22.4861 23.0122 26.651 23.0122 31.7886C23.0122 36.9263 27.1757 41.0911 32.3115 41.0911Z" fill="#F2C94C"/>
<path d="M31.9336 24.789C33.264 24.8295 34.552 25.2665 35.6325 26.0442C36.0414 26.3416 36.4156 26.684 36.7482 27.065C36.6685 26.4584 36.4246 25.8851 36.0429 25.4071C35.3815 24.605 34.3343 24.2531 33.2682 24.3861C32.8044 24.4467 32.3535 24.5829 31.9336 24.789Z" fill="#27343A"/>
<path d="M18.5255 21.877C15.3211 33.7214 22.5518 40.0629 30.5275 40.8985V33.8831L18.5255 21.877Z" fill="#03592D"/>
<path d="M34.1821 40.8985C42.1572 40.0604 49.3894 33.724 46.1842 21.877L34.1821 33.8832V40.8985Z" fill="#03592D"/>
<path fill-rule="evenodd" clip-rule="evenodd" d="M8.64239 45.8769C7.83898 45.2623 6.75203 44.9551 5.38153 44.9551C4.77833 44.9508 4.17636 45.0102 3.58564 45.1323C3.07682 45.2357 2.5841 45.4066 2.12058 45.6406C1.9215 45.7373 1.74452 45.8741 1.60071 46.0424C1.4855 46.1996 1.42717 46.3913 1.43529 46.5861C1.43408 46.7562 1.48797 46.922 1.5889 47.0589L1.59197 47.0631C1.673 47.1729 1.78934 47.2514 1.92143 47.2854C2.05351 47.3194 2.19328 47.3069 2.31721 47.2499C2.69966 47.0775 3.09158 46.9269 3.49108 46.7988C4.09452 46.6066 4.72452 46.5108 5.35781 46.5152C6.16123 46.5153 6.79925 46.6965 7.27188 47.0589C7.74449 47.4214 7.9808 47.9966 7.9808 48.7844V49.4463L4.62529 49.7772C3.39634 49.9034 2.44329 50.2304 1.76613 50.7582C1.08871 51.2862 0.75 52.0701 0.75 53.1102C0.749801 54.2135 1.15546 55.0566 1.96697 55.6394C2.77812 56.2225 3.92417 56.5141 5.40515 56.5141C6.12568 56.524 6.84447 56.4405 7.5436 56.2658C8.06696 56.1394 8.57144 55.9447 9.04409 55.6867C9.27683 55.5592 9.48172 55.3864 9.64671 55.1785C9.79561 54.9424 9.86592 54.6652 9.84756 54.3866V48.7844C9.84758 47.4607 9.44586 46.4916 8.64239 45.8769ZM7.04744 54.753C6.51281 54.9001 5.95947 54.9678 5.40515 54.9539C4.47554 54.9541 3.78238 54.7926 3.32566 54.4694C3.10351 54.316 2.92405 54.1086 2.80418 53.8666C2.6843 53.6247 2.62796 53.3562 2.64045 53.0865C2.64028 52.5195 2.83719 52.0901 3.23118 51.7983C3.62489 51.507 4.2314 51.3219 5.05069 51.2428L7.9808 50.9355V54.363C7.68837 54.5339 7.37449 54.665 7.04744 54.753Z" fill="#608F3E"/>
<path d="M33.0395 46.4267C33.0394 46.1268 32.852 45.8769 32.4774 45.6769C32.1025 45.4769 31.584 45.3769 30.9218 45.3769C30.3145 45.3732 29.7135 45.5011 29.1603 45.7518C28.6277 45.9891 28.1542 46.3412 27.7735 46.7829V46.4267C27.7734 45.8018 27.461 45.4894 26.8365 45.4894C26.71 45.4754 26.5821 45.4901 26.4621 45.5323C26.342 45.5744 26.233 45.643 26.1431 45.733C26.0531 45.823 25.9845 45.9321 25.9424 46.0521C25.9002 46.1722 25.8856 46.3002 25.8995 46.4267V54.8066C25.8896 54.9343 25.9062 55.0626 25.9481 55.1835C25.99 55.3045 26.0564 55.4155 26.1431 55.5096C26.3342 55.6763 26.5835 55.7606 26.8365 55.7439C26.9641 55.7537 27.0923 55.7372 27.2132 55.6952C27.3341 55.6533 27.4451 55.587 27.5392 55.5003C27.7058 55.3091 27.79 55.0597 27.7735 54.8066V49.3325C27.7635 49.0081 27.8335 48.6862 27.9773 48.3952C28.1211 48.1042 28.3343 47.8531 28.5981 47.6641C29.1478 47.2516 29.8724 47.0454 30.772 47.0454C31.1809 47.0554 31.5883 47.0993 31.99 47.1766C32.0824 47.1976 32.1766 47.2102 32.2713 47.2141C32.6585 47.2142 32.9083 47.0143 33.0209 46.6142C33.0358 46.5529 33.0421 46.4898 33.0395 46.4267Z" fill="#608F3E"/>
<path fill-rule="evenodd" clip-rule="evenodd" d="M22.3859 47.9266C21.956 47.1531 21.3203 46.5139 20.5493 46.0799C19.7392 45.6289 18.8246 45.3994 17.8976 45.4144C16.9615 45.3986 16.0376 45.628 15.2177 46.0799C14.4439 46.5102 13.8073 47.1503 13.3812 47.9266C12.9336 48.7548 12.7076 49.6847 12.7252 50.6261C12.709 51.5558 12.9179 52.4756 13.3343 53.3069C13.7181 54.0704 14.3091 54.7103 15.0396 55.1534C15.7892 55.6022 16.6492 55.8327 17.5227 55.8189C18.2812 55.8301 19.0278 55.6288 19.6779 55.2378C20.3218 54.8435 20.8515 54.2877 21.2146 53.6255V54.5442C21.2334 55.2488 21.079 55.9472 20.7648 56.5782C20.4953 57.1141 20.0795 57.5627 19.5654 57.8717C19.0596 58.1669 18.4832 58.3192 17.8976 58.3122C17.2985 58.3224 16.7043 58.2042 16.1547 57.9655C15.6531 57.7425 15.215 57.3978 14.8804 56.9625C14.7939 56.8394 14.6787 56.7392 14.5449 56.6706C14.411 56.602 14.2624 56.5671 14.112 56.5688C13.9244 56.5728 13.742 56.6314 13.5873 56.7375C13.4705 56.8081 13.3733 56.9069 13.3045 57.0248C13.2357 57.1427 13.1976 57.2759 13.1937 57.4124C13.2006 57.6058 13.2733 57.791 13.3999 57.9373C13.9184 58.5948 14.5867 59.1187 15.3488 59.4652C16.137 59.8243 16.994 60.0067 17.86 59.9995C18.8037 60.0142 19.7335 59.7711 20.5493 59.2965C21.331 58.8398 21.9702 58.1744 22.3953 57.3749C22.837 56.5444 23.0625 55.616 23.0512 54.6754V50.6261C23.0685 49.6836 22.8392 48.753 22.3859 47.9266ZM20.7929 52.4351C20.5242 52.9533 20.1151 53.3854 19.6123 53.6818C19.0889 53.9767 18.4983 54.1316 17.8975 54.1316C17.2968 54.1316 16.7062 53.9767 16.1828 53.6818C15.6787 53.384 15.2669 52.9525 14.9928 52.4351C14.699 51.878 14.5508 51.2558 14.5618 50.6261C14.5516 49.9934 14.6997 49.3683 14.9928 48.8076C15.2649 48.2863 15.677 47.8513 16.1828 47.5515C16.7062 47.2566 17.2968 47.1017 17.8975 47.1017C18.4983 47.1017 19.0889 47.2566 19.6123 47.5515C20.1168 47.85 20.5262 48.2855 20.7929 48.8076C21.08 49.3701 21.2248 49.9945 21.2146 50.6261C21.2256 51.2547 21.0807 51.8762 20.7929 52.4351Z" fill="#608F3E"/>
<path fill-rule="evenodd" clip-rule="evenodd" d="M36.2254 55.1534C35.4516 54.7232 34.8149 54.0832 34.3889 53.3069C33.9579 52.4757 33.7329 51.5531 33.7329 50.6167C33.7329 49.6804 33.9579 48.7578 34.3889 47.9266C34.815 47.1503 35.4516 46.5102 36.2254 46.0799C37.0453 45.628 37.9693 45.3986 38.9053 45.4144C39.8323 45.3994 40.747 45.6289 41.5571 46.0799C42.3281 46.5139 42.9638 47.1531 43.3936 47.9266C43.829 48.7561 44.0573 49.6787 44.0589 50.6156C44.0605 51.5525 43.8354 52.4759 43.4029 53.3069C42.9785 54.0812 42.3455 54.721 41.5757 55.1534C40.7517 55.5904 39.8332 55.8189 38.9006 55.8189C37.9679 55.8189 37.0494 55.5904 36.2254 55.1534ZM40.6199 53.6818C41.1228 53.3854 41.532 52.9534 41.8007 52.4351C42.0885 51.8762 42.2333 51.2547 42.2224 50.6261C42.2326 49.9945 42.0878 49.3701 41.8007 48.8076C41.534 48.2855 41.1245 47.8499 40.6199 47.5515C40.0965 47.2566 39.506 47.1017 38.9052 47.1017C38.3045 47.1017 37.7139 47.2566 37.1905 47.5515C36.6847 47.8513 36.2726 48.2863 36.0005 48.8076C35.7074 49.3683 35.5592 49.9934 35.5694 50.6261C35.5584 51.2558 35.7067 51.878 36.0005 52.4351C36.2745 52.9525 36.6864 53.384 37.1905 53.6818C37.7139 53.9767 38.3045 54.1316 38.9052 54.1316C39.506 54.1316 40.0965 53.9767 40.6199 53.6818Z" fill="#608F3E"/>
<path d="M45.9596 50.9923C46.0064 51.1086 46.0771 51.2137 46.1671 51.3009C46.2578 51.3881 46.3651 51.4562 46.4826 51.5013C46.6 51.5463 46.7253 51.5674 46.851 51.5634H51.0302C51.1547 51.5688 51.2789 51.5483 51.3951 51.5031C51.5112 51.4579 51.6167 51.389 51.7048 51.3009C51.7929 51.2127 51.8617 51.1072 51.9069 50.9911C51.952 50.8749 51.9726 50.7506 51.9671 50.6261C51.9711 50.5003 51.9499 50.375 51.9049 50.2574C51.8598 50.1399 51.7918 50.0326 51.7048 49.9417C51.6175 49.8519 51.5124 49.7812 51.3962 49.7344C51.28 49.6876 51.1553 49.6657 51.0302 49.6699H46.851C46.7245 49.6663 46.5986 49.6885 46.481 49.7352C46.3634 49.782 46.2565 49.8523 46.167 49.9418C46.0775 50.0313 46.0073 50.1382 45.9605 50.2559C45.9138 50.3735 45.8916 50.4995 45.8952 50.6261C45.8908 50.7513 45.9127 50.8761 45.9596 50.9923Z" fill="#608F3E"/>
<path fill-rule="evenodd" clip-rule="evenodd" d="M63.0053 51.0479C62.9229 51.1261 62.8258 51.187 62.7196 51.2273C62.6134 51.2675 62.5003 51.2862 62.3868 51.2822H55.2656C55.3786 52.114 55.8041 52.8714 56.4554 53.4005C56.9549 53.7909 57.5439 54.0503 58.169 54.155C58.7942 54.2598 59.4355 54.2066 60.0349 54.0004C60.3942 53.887 60.7328 53.7161 61.0375 53.4943C61.2138 53.3564 61.4322 53.2836 61.656 53.2881C61.8604 53.2769 62.0614 53.3439 62.2182 53.4756C62.3193 53.5491 62.4023 53.6447 62.4607 53.7552C62.5192 53.8656 62.5516 53.988 62.5555 54.113C62.5553 54.2241 62.5279 54.3335 62.4756 54.4316C62.4233 54.5296 62.3478 54.6134 62.2556 54.6754C61.7794 55.0399 61.2436 55.319 60.672 55.5003C59.9285 55.7596 59.1394 55.8626 58.3543 55.8029C57.5691 55.7432 56.8047 55.5221 56.1088 55.1534C55.3149 54.7276 54.656 54.088 54.2067 53.3069C53.743 52.4906 53.5068 51.5648 53.5226 50.6261C53.5073 49.6891 53.7298 48.7635 54.1691 47.9359C54.5826 47.1605 55.2062 46.5172 55.9683 46.0799C56.7648 45.629 57.6674 45.3993 58.5825 45.4144C59.4563 45.3916 60.3194 45.6123 61.0751 46.0518C61.7739 46.4761 62.334 47.095 62.6867 47.8328C63.0741 48.6525 63.2665 49.5508 63.2489 50.4574C63.2519 50.5674 63.2318 50.6768 63.1898 50.7785C63.1479 50.8803 63.085 50.972 63.0053 51.0479ZM56.3619 47.7765C55.7806 48.2996 55.3996 49.0088 55.2842 49.7824H61.5248C61.4508 49.0263 61.1201 48.3184 60.5878 47.7765C60.0753 47.2768 59.4069 47.0268 58.5825 47.0266C57.6704 47.0266 56.9302 47.2765 56.3619 47.7765Z" fill="#608F3E"/>
</svg>
