<svg width="178" height="233" viewBox="0 0 178 233" fill="none" xmlns="http://www.w3.org/2000/svg">
<path d="M132.913 37.4451C132.913 37.4451 137.94 42.1412 145.123 48.1752" stroke="#27343A" stroke-width="1.5" stroke-linecap="round" stroke-linejoin="round"/>
<path d="M141.124 94.5477C141.124 94.5477 168.388 173.293 141.124 219.408L144.029 227.596L120.607 217.684L123.539 152.176C123.539 152.176 105.048 111.172 106.868 103.229C108.689 95.2867 109.114 83.6819 109.114 83.6819" fill="#C7D2D3"/>
<path d="M133.457 84.844C133.457 84.844 139.257 179.516 122.875 224.34L126.297 229.367H97.1584C97.1584 229.367 93.9751 108.95 93.9751 82.9595L133.457 84.844Z" fill="#EAEEEF"/>
<path d="M125.482 11.5951V23.8983L110.24 27.6446V6.88169L125.482 3.13574V11.5951Z" fill="#EAEEEF"/>
<path d="M116.872 15.8519C117.097 15.8519 117.279 15.6695 117.279 15.4444C117.279 15.2193 117.097 15.0369 116.872 15.0369C116.647 15.0369 116.464 15.2193 116.464 15.4444C116.464 15.6695 116.647 15.8519 116.872 15.8519Z" fill="#27343A"/>
<path d="M123.131 15.8519C123.356 15.8519 123.538 15.6695 123.538 15.4444C123.538 15.2193 123.356 15.0369 123.131 15.0369C122.906 15.0369 122.723 15.2193 122.723 15.4444C122.723 15.6695 122.906 15.8519 123.131 15.8519Z" fill="#27343A"/>
<path d="M121.295 17.8752V11.595H124.441" stroke="#27343A" stroke-width="1.5" stroke-linecap="round" stroke-linejoin="round"/>
<path d="M116.104 11.595H119.25" stroke="#27343A" stroke-width="1.5" stroke-linecap="round" stroke-linejoin="round"/>
<path d="M111.244 14.813V16.994C110.679 16.994 110.137 16.7696 109.737 16.3701C109.338 15.9706 109.114 15.4288 109.114 14.8638C109.114 14.7985 109.116 14.7338 109.122 14.6699C109.242 13.3472 111.244 13.4849 111.244 14.813Z" fill="#EAEEEF"/>
<path d="M111.244 16.9939C110.679 16.9939 110.137 16.7695 109.738 16.37C109.338 15.9705 109.114 15.4287 109.114 14.8638" stroke="#27343A" stroke-width="1.5" stroke-linecap="round" stroke-linejoin="round"/>
<path d="M119.919 19.4235C119.347 19.4235 118.798 19.1964 118.394 18.7921C117.99 18.3878 117.763 17.8394 117.763 17.2676" stroke="#27343A" stroke-width="1.5" stroke-linecap="round" stroke-linejoin="round"/>
<path d="M125.482 23.8984L110.24 27.6446" stroke="#27343A" stroke-width="1.5" stroke-linecap="round" stroke-linejoin="round"/>
<path d="M121.295 17.8804L119.919 18.2186" stroke="#27343A" stroke-width="1.5" stroke-linecap="round" stroke-linejoin="round"/>
<path d="M111.244 14.5096C111.244 14.5096 113.187 10.9658 113.282 9.38551L113.809 11.5951C113.809 11.5951 117.401 10.487 119.604 7.7573V10.5668C119.604 10.5668 123.841 9.67284 124.931 6.84741V9.48129C124.931 9.48129 126.26 8.5714 126.596 7.18263" stroke="#27343A" stroke-width="1.5" stroke-linecap="round" stroke-linejoin="round"/>
<path d="M125.481 11.8756C125.481 11.8756 133.225 3.66015 122.723 1.38802C115.198 -0.240193 111.244 3.78245 111.244 3.78245C111.244 3.78245 108.637 5.02756 107.583 7.13466C106.53 9.24176 106.096 14.6532 110.24 18.6758" stroke="#27343A" stroke-width="1.5" stroke-linecap="round" stroke-linejoin="round"/>
<path d="M93.9751 49.6768V82.9593L141.124 94.5478V57.4801C141.124 51.0933 138.983 44.891 135.042 39.8647C131.102 34.8384 125.59 31.2785 119.387 29.7541H119.387C116.367 29.0116 113.216 28.9658 110.175 29.6202C107.134 30.2746 104.281 31.612 101.833 33.5314C99.3849 35.4507 97.4053 37.9016 96.0439 40.6987C94.6825 43.4959 93.9751 46.566 93.9751 49.6768L93.9751 49.6768Z" fill="#608F3E"/>
<path d="M125.482 74.8072C125.482 74.8072 125.508 47.3954 141.124 47.2201C156.741 47.0448 151.306 29.1514 151.306 29.1514L176.901 34.9485C176.901 34.9485 181.109 59.4918 159.546 66.8506C148.527 70.6111 153.242 96.2559 153.242 96.2559L124.931 92.9758V89.1959" fill="#F2C94C"/>
<path d="M176.901 34.9482C176.901 34.9482 181.109 59.4915 159.546 66.8503C148.527 70.6109 153.242 96.2557 153.242 96.2557" stroke="#27343A" stroke-width="1.5" stroke-linecap="round" stroke-linejoin="round"/>
<path d="M133.457 84.8438C133.457 84.8438 139.257 179.516 122.875 224.339" stroke="#27343A" stroke-width="1.5" stroke-linecap="round" stroke-linejoin="round"/>
<path d="M148.858 91.275C148.858 91.275 165.38 95.8723 168.684 88.258C171.988 80.6438 166.098 59.6685 166.098 59.6685C166.098 59.6685 167.822 55.9332 166.96 54.9275C166.098 53.9219 165.236 54.9275 165.236 54.9275C165.236 54.9275 163.871 48.3189 161.788 48.8217C159.705 49.3246 158.247 60.9522 157.46 69.0589" stroke="#27343A" stroke-width="1.5" stroke-linecap="round" stroke-linejoin="round"/>
<path d="M171.986 231.617C171.986 231.617 173.736 228.52 169.293 227.847C166.652 227.439 163.95 227.765 161.483 228.79C161.483 228.79 164.58 225.019 159.732 223.404C154.885 221.788 149.903 225.558 149.903 225.558C149.903 225.558 154.75 216.536 150.98 215.863C147.21 215.19 145.19 219.095 145.19 219.095C145.19 219.095 145.594 207.919 137.784 207.649C129.974 207.38 130.782 221.922 130.782 221.922C130.782 221.922 127.416 215.459 121.761 215.19C116.105 214.921 118.933 226.016 118.933 226.016C118.933 226.016 117.856 223.404 114.085 223.134C110.315 222.865 110.585 226.025 110.585 226.025C110.585 226.025 105.737 219.229 100.351 219.633C94.965 220.037 97.2541 226.77 97.2541 226.77C91.7333 226.366 90.5215 232.417 90.5215 232.417H175.891L171.986 231.617Z" fill="#27343A"/>
<path d="M116.053 123.625C111.54 119.478 108.105 114.294 106.045 108.522C103.548 101.623 98.9856 95.6608 92.9794 91.4472C86.9732 87.2335 79.8146 84.9729 72.4778 84.9729C65.141 84.9729 57.9823 87.2335 51.9761 91.4472C45.97 95.6608 41.408 101.623 38.911 108.522C36.8508 114.294 33.4157 119.478 28.9025 123.625C25.2238 126.966 22.2854 131.039 20.2765 135.584C18.2675 140.129 17.2326 145.044 17.2383 150.013C17.2383 169.741 33.4292 185.825 53.1569 185.699C55.2171 185.686 57.2724 185.496 59.2999 185.131C68.0147 183.557 76.9409 183.557 85.6556 185.131C87.6832 185.496 89.7385 185.686 91.7987 185.699C111.526 185.825 127.717 169.741 127.717 150.013C127.723 145.044 126.688 140.129 124.679 135.584C122.67 131.039 119.732 126.966 116.053 123.625Z" fill="#608F3E"/>
<path d="M59.2998 185.131C68.0145 183.557 76.9407 183.557 85.6555 185.131C87.6831 185.496 89.7384 185.686 91.7986 185.698C111.526 185.825 127.717 169.741 127.717 150.013" stroke="#27343A" stroke-width="1.5" stroke-linecap="round" stroke-linejoin="round"/>
<path d="M1 231.859H143.955" stroke="#27343A" stroke-width="1.5" stroke-linecap="round" stroke-linejoin="round"/>
<path d="M72.4775 160.367V231.859" stroke="#27343A" stroke-width="1.5" stroke-linecap="round" stroke-linejoin="round"/>
<path d="M87.6177 145.227L72.4776 160.367L57.3376 145.227" stroke="#27343A" stroke-width="1.5" stroke-linecap="round" stroke-linejoin="round"/>
<path d="M111.153 34.0576C111.153 34.0576 82.9672 34.767 70.9825 39.9367L72.2431 22.009C72.2431 22.009 74.7505 21.3323 74.4108 18.6769C74.3801 18.4436 74.3324 18.2129 74.2679 17.9867C73.3595 14.7559 77.3189 12.0469 72.0419 11.706C66.765 11.3652 44.7126 41.3458 50.118 53.4772C55.5234 65.6086 90.059 65.6957 101.695 61.8632" stroke="#27343A" stroke-width="1.5" stroke-linecap="round" stroke-linejoin="round"/>
</svg>
