<svg width="19" height="16" viewBox="0 0 19 16" fill="none" xmlns="http://www.w3.org/2000/svg">
<path d="M19 1.89305C18.3007 2.21429 17.5503 2.43216 16.762 2.52942C17.567 2.02968 18.1832 1.23702 18.4752 0.295398C17.7201 0.758193 16.8866 1.09424 15.9985 1.27641C15.2874 0.489895 14.2758 0 13.1538 0C11.0013 0 9.25596 1.80937 9.25596 4.03969C9.25596 4.35601 9.29039 4.66496 9.35689 4.96039C6.11801 4.79174 3.24599 3.18301 1.32379 0.738495C0.987784 1.33425 0.796635 2.02842 0.796635 2.76943C0.796635 4.1714 1.48526 5.40841 2.53008 6.13213C1.89131 6.10999 1.29054 5.92782 0.764596 5.62502V5.67549C0.764596 7.63255 2.1086 9.2659 3.89069 9.63764C3.56418 9.72873 3.21988 9.7792 2.8637 9.7792C2.61201 9.7792 2.36861 9.75335 2.12996 9.70411C2.62623 11.3104 4.06523 12.4785 5.77017 12.5105C4.43685 13.5937 2.75566 14.2374 0.929636 14.2374C0.615017 14.2374 0.305118 14.2177 0 14.182C1.72512 15.3304 3.77318 16 5.97439 16C13.1444 16 17.0636 9.84321 17.0636 4.50374L17.0505 3.98063C17.8163 3.41439 18.4788 2.70297 19 1.89305Z" fill="#596870"/>
</svg>
