<svg width="21" height="22" viewBox="0 0 21 22" fill="none" xmlns="http://www.w3.org/2000/svg">
<path d="M12.41 11L20.7 2.71C21.0398 2.31324 21.0169 1.72181 20.6476 1.35244C20.2782 0.98307 19.6868 0.960225 19.29 1.3L11 9.59L2.71001 1.29C2.31788 0.89788 1.68213 0.89788 1.29001 1.29C0.897883 1.68212 0.897883 2.31788 1.29001 2.71L9.59 11L1.29001 19.29C1.00463 19.5344 0.880323 19.9181 0.968195 20.2834C1.05607 20.6487 1.34129 20.9339 1.70659 21.0218C2.07189 21.1097 2.45562 20.9854 2.70001 20.7L11 12.41L19.29 20.7C19.6868 21.0398 20.2782 21.0169 20.6476 20.6476C21.0169 20.2782 21.0398 19.6868 20.7 19.29L12.41 11Z" fill="#596870"/>
</svg>
