<svg width="22" height="22" viewBox="0 0 22 22" fill="none" xmlns="http://www.w3.org/2000/svg">
<path d="M11.0001 18.3332C9.54971 18.3332 8.13189 17.9031 6.92593 17.0973C5.71997 16.2915 4.78004 15.1462 4.22499 13.8062C3.66995 12.4662 3.52473 10.9918 3.80768 9.56923C4.09064 8.1467 4.78908 6.84003 5.81466 5.81444C6.84025 4.78886 8.14692 4.09042 9.56945 3.80747C10.992 3.52451 12.4665 3.66973 13.8065 4.22477C15.1464 4.77982 16.2918 5.71975 17.0976 6.92571C17.9033 8.13167 18.3334 9.5495 18.3334 10.9999C18.3334 12.9448 17.5608 14.8101 16.1856 16.1853C14.8103 17.5606 12.945 18.3332 11.0001 18.3332ZM11.0001 4.99989C9.81342 4.99989 8.65338 5.35178 7.66669 6.01107C6.67999 6.67036 5.91096 7.60743 5.45683 8.70379C5.00271 9.80015 4.88389 11.0065 5.1154 12.1704C5.34691 13.3343 5.91835 14.4034 6.75747 15.2425C7.59658 16.0816 8.66568 16.6531 9.82957 16.8846C10.9935 17.1161 12.1999 16.9973 13.2962 16.5432C14.3926 16.089 15.3296 15.32 15.9889 14.3333C16.6482 13.3466 17.0001 12.1866 17.0001 10.9999C17.0001 9.40859 16.368 7.88247 15.2428 6.75725C14.1175 5.63203 12.5914 4.99989 11.0001 4.99989Z" fill="#608F3E"/>
<path d="M11.0001 14.3332C10.3408 14.3332 9.69637 14.1377 9.14821 13.7715C8.60005 13.4052 8.1728 12.8846 7.92051 12.2755C7.66822 11.6664 7.60221 10.9962 7.73082 10.3496C7.85944 9.70299 8.17691 9.10904 8.64309 8.64287C9.10926 8.17669 9.7032 7.85922 10.3498 7.73061C10.9964 7.60199 11.6666 7.668 12.2757 7.92029C12.8848 8.17258 13.4054 8.59983 13.7717 9.14799C14.1379 9.69615 14.3334 10.3406 14.3334 10.9999C14.3334 11.4376 14.2472 11.8711 14.0797 12.2755C13.9122 12.6799 13.6667 13.0474 13.3571 13.3569C13.0476 13.6664 12.6801 13.912 12.2757 14.0795C11.8713 14.247 11.4378 14.3332 11.0001 14.3332ZM11.0001 8.99989C10.6045 8.99989 10.2179 9.11719 9.88897 9.33695C9.56007 9.55672 9.30373 9.86907 9.15235 10.2345C9.00097 10.6 8.96137 11.0021 9.03854 11.3901C9.11571 11.778 9.30619 12.1344 9.5859 12.4141C9.8656 12.6938 10.222 12.8843 10.6099 12.9615C10.9979 13.0386 11.4 12.999 11.7655 12.8477C12.1309 12.6963 12.4433 12.4399 12.663 12.111C12.8828 11.7821 13.0001 11.3955 13.0001 10.9999C13.0001 10.4695 12.7894 9.96075 12.4143 9.58568C12.0393 9.2106 11.5305 8.99989 11.0001 8.99989Z" fill="#608F3E"/>
<path d="M11.0001 4.99989C10.8233 4.99989 10.6537 4.92965 10.5287 4.80463C10.4037 4.6796 10.3334 4.51004 10.3334 4.33322V0.866557C10.3334 0.689746 10.4037 0.520177 10.5287 0.395152C10.6537 0.270128 10.8233 0.19989 11.0001 0.19989C11.1769 0.19989 11.3465 0.270128 11.4715 0.395152C11.5965 0.520177 11.6668 0.689746 11.6668 0.866557V4.33322C11.6668 4.51004 11.5965 4.6796 11.4715 4.80463C11.3465 4.92965 11.1769 4.99989 11.0001 4.99989Z" fill="#608F3E"/>
<path d="M11.0001 21.6666C10.8233 21.6666 10.6537 21.5963 10.5287 21.4713C10.4037 21.3463 10.3334 21.1767 10.3334 20.9999V17.6666C10.3334 17.4897 10.4037 17.3202 10.5287 17.1952C10.6537 17.0701 10.8233 16.9999 11.0001 16.9999C11.1769 16.9999 11.3465 17.0701 11.4715 17.1952C11.5965 17.3202 11.6668 17.4897 11.6668 17.6666V20.9999C11.6668 21.1767 11.5965 21.3463 11.4715 21.4713C11.3465 21.5963 11.1769 21.6666 11.0001 21.6666Z" fill="#608F3E"/>
<path d="M4.33344 11.6666H1.11344C0.936633 11.6666 0.767064 11.5963 0.642039 11.4713C0.517015 11.3463 0.446777 11.1767 0.446777 10.9999C0.446777 10.8231 0.517015 10.6535 0.642039 10.5285C0.767064 10.4035 0.936633 10.3332 1.11344 10.3332H4.33344C4.51025 10.3332 4.67982 10.4035 4.80485 10.5285C4.92987 10.6535 5.00011 10.8231 5.00011 10.9999C5.00011 11.1767 4.92987 11.3463 4.80485 11.4713C4.67982 11.5963 4.51025 11.6666 4.33344 11.6666Z" fill="#608F3E"/>
<path d="M21.0668 11.6666H17.6668C17.49 11.6666 17.3204 11.5963 17.1954 11.4713C17.0703 11.3463 17.0001 11.1767 17.0001 10.9999C17.0001 10.8231 17.0703 10.6535 17.1954 10.5285C17.3204 10.4035 17.49 10.3332 17.6668 10.3332H21.0668C21.2436 10.3332 21.4132 10.4035 21.5382 10.5285C21.6632 10.6535 21.7334 10.8231 21.7334 10.9999C21.7334 11.1767 21.6632 11.3463 21.5382 11.4713C21.4132 11.5963 21.2436 11.6666 21.0668 11.6666Z" fill="#608F3E"/>
</svg>
