<svg width="47" height="58" viewBox="0 0 47 58" fill="none" xmlns="http://www.w3.org/2000/svg">
<path fill-rule="evenodd" clip-rule="evenodd" d="M24.5375 34.8638C25.9912 35.0421 27.3911 35.5291 28.6461 36.2927C29.7699 37.0463 30.3317 38.2352 30.3317 39.8597C30.3995 41.4552 29.6788 42.9802 28.4091 43.9279C27.2715 44.7481 25.931 45.2318 24.5375 45.3248V47.127C24.5375 47.7159 24.0659 48.1934 23.4841 48.1934C22.9023 48.1934 22.4306 47.7159 22.4306 47.127V45.3568C21.2021 45.2841 19.9879 45.0529 18.8171 44.669C17.3633 44.1749 16.6365 43.64 16.6365 43.0642C16.6365 41.9978 17.0825 41.4646 17.9744 41.4646C18.7076 41.6027 19.4283 41.8025 20.1287 42.0618C20.8762 42.3114 21.6451 42.4901 22.4253 42.5949V37.1938C22.025 37.1334 21.6738 37.0748 21.3718 37.0178C20.8072 36.8997 20.2525 36.7376 19.7126 36.5327C19.1759 36.3514 18.671 36.085 18.2167 35.7435C17.336 35.0003 16.8377 33.8914 16.863 32.7311C16.8636 31.1595 17.6354 29.691 18.9225 28.8121C19.9501 28.0311 21.1575 27.5283 22.4306 27.3513V25.5224C22.4306 24.9335 22.9023 24.4561 23.4841 24.4561C24.0659 24.4561 24.5375 24.9335 24.5375 25.5224V27.2819C25.9639 27.3129 27.3712 27.6205 28.683 28.1884C29.3853 28.5438 29.7365 28.9561 29.7365 29.4253C29.7365 30.378 29.3045 30.8543 28.4407 30.8543C27.8282 30.7527 27.2267 30.5921 26.6445 30.3744C25.9598 30.1519 25.2534 30.0054 24.5375 29.9372V34.8638ZM22.0092 34.4959L22.4306 34.5599V30.0119C21.889 30.1278 21.3752 30.3507 20.9188 30.6677C20.2352 31.0846 19.8159 31.8324 19.8127 32.6405C19.7977 32.9749 19.8841 33.3061 20.0602 33.5895C20.2898 33.8784 20.603 34.0871 20.9557 34.1867C21.2986 34.3165 21.6509 34.4198 22.0092 34.4959ZM26.2811 41.9498C26.9742 41.5631 27.3997 40.8206 27.3872 40.0197C27.4429 39.2684 27.0543 38.5549 26.3969 38.2015C25.8073 37.9075 25.1821 37.6923 24.5375 37.5617V42.5736C25.1547 42.4884 25.7481 42.2763 26.2811 41.9498Z" fill="#27343A"/>
<path fill-rule="evenodd" clip-rule="evenodd" d="M28.6594 16.6933C33.4205 17.6474 37.7734 20.0685 41.122 23.6246C44.5469 27.2463 46.4714 32.0582 46.5 37.0715C46.4526 42.781 43.9788 48.1933 39.7103 51.926C35.224 55.8933 29.4543 58.0544 23.4974 57.999C17.5403 58.0544 11.7708 55.8933 7.28436 51.926C3.01923 48.1936 0.547546 42.7836 0.5 37.0769C0.531494 32.0645 2.45776 27.2548 5.88324 23.6353C9.23187 20.0791 13.5848 17.6581 18.3459 16.7039C18.0983 15.483 17.8192 14.262 17.5189 13.2916C17.3699 12.8126 17.2874 12.4139 17.2335 12.1538C17.1902 11.9449 17.1655 11.8253 17.1396 11.8253C15.7712 11.7867 14.4706 11.2135 13.5104 10.2258C12.5403 9.27687 11.9832 7.97615 11.9618 6.61079C11.938 3.71919 14.2344 1.3556 17.0911 1.33149C17.9303 1.32441 18.7587 1.52412 19.5047 1.91346C21.3116 -0.318591 24.5641 -0.645312 26.7692 1.18379C27.0327 1.40242 27.274 1.64674 27.4901 1.91346C30.0292 0.588392 33.1488 1.59767 34.4578 4.16786C34.8367 4.9117 35.034 5.73665 35.0329 6.5735C35.0166 7.93562 34.4672 9.23567 33.5054 10.1884C32.5451 11.1762 31.2446 11.7493 29.8762 11.788C29.8503 11.788 29.8256 11.9075 29.7823 12.1165C29.7285 12.3766 29.6459 12.7753 29.4969 13.2543L29.3915 13.6062C29.3832 13.6459 29.3727 13.6849 29.36 13.7235C29.0913 14.6299 28.8596 15.6696 28.6489 16.6933H28.6594ZM15.0011 8.64753C15.5535 9.23701 16.3068 9.59157 17.108 9.63929C18.1683 9.65516 18.899 10.7304 19.4305 12.2999H27.5585C28.0853 10.7003 28.8227 9.63392 29.8604 9.63392C30.6617 9.58626 31.4149 9.23164 31.9673 8.64222C32.5384 8.09572 32.8718 7.34205 32.8943 6.54683C32.8964 4.84181 31.5326 3.45808 29.8483 3.45595C29.1208 3.45503 28.4171 3.71736 27.864 4.19551C27.4243 4.58125 26.759 4.53309 26.378 4.08803C26.3174 4.0171 26.2662 3.93861 26.2259 3.85426C25.9716 3.33613 25.5794 2.9004 25.0934 2.59596C24.1068 1.98012 22.8616 1.98012 21.875 2.59596C21.4054 2.89119 21.0233 3.30934 20.7689 3.80623C20.5454 4.34999 19.9287 4.60737 19.3916 4.38118C19.2869 4.33705 19.1898 4.27614 19.1044 4.20082C17.8235 3.09364 15.8984 3.24708 14.8046 4.54365C14.3323 5.10347 14.0731 5.81593 14.074 6.55214C14.0966 7.34736 14.43 8.10103 15.0011 8.64753ZM26.5261 16.4747C26.6631 15.8029 26.8053 15.1204 26.9633 14.4699H20.0367C20.1895 15.1364 20.3369 15.8029 20.4686 16.4747H26.5261ZM23.4974 55.8449C28.9325 55.9038 34.1998 53.94 38.2987 50.3265C42.1045 47.0017 44.3147 42.1813 44.3667 37.0928C44.3408 32.6192 42.6215 28.3258 39.5629 25.0963C36.299 21.6384 32.0004 19.3655 27.332 18.6287L27.3162 18.6074H19.6627C14.9919 19.3503 10.6932 21.6309 7.43188 25.0963C4.37689 28.3216 2.6579 32.6087 2.62799 37.0769C2.67542 42.1709 4.88617 46.9979 8.69604 50.3265C12.795 53.94 18.0622 55.9038 23.4974 55.8449Z" fill="#27343A"/>
</svg>
