<svg width="305" height="213" viewBox="0 0 305 213" fill="none" xmlns="http://www.w3.org/2000/svg">
<path d="M158.845 149.825H181.62V154.727H158.845V149.825Z" fill="#F5F7F8"/>
<path d="M158.845 182.344H181.62V187.246H158.845V182.344Z" fill="#F5F7F8"/>
<path d="M174.917 203.951V141.39C174.917 140.568 174.7 139.761 174.289 139.049C173.878 138.337 173.287 137.746 172.575 137.335C171.862 136.924 171.055 136.708 170.232 136.708C169.41 136.708 168.602 136.924 167.89 137.335C167.178 137.746 166.587 138.337 166.176 139.049C165.765 139.761 165.548 140.568 165.548 141.39V203.951" fill="#F5F7F8"/>
<path d="M170.233 152.725C170.481 152.725 170.683 152.524 170.683 152.276C170.683 152.028 170.481 151.827 170.233 151.827C169.984 151.827 169.783 152.028 169.783 152.276C169.783 152.524 169.984 152.725 170.233 152.725Z" fill="#F5F7F8"/>
<path d="M170.233 185.244C170.481 185.244 170.683 185.043 170.683 184.795C170.683 184.547 170.481 184.345 170.233 184.345C169.984 184.345 169.783 184.547 169.783 184.795C169.783 185.043 169.984 185.244 170.233 185.244Z" fill="#F5F7F8"/>
<path d="M174.916 203.951V141.39C174.916 140.568 174.7 139.761 174.289 139.049C173.878 138.337 173.286 137.746 172.574 137.335C171.862 136.924 171.054 136.708 170.232 136.708C169.41 136.708 168.602 136.924 167.89 137.335" stroke="#F5F7F8" stroke-linecap="round" stroke-linejoin="round"/>
<path d="M190.987 203.951V141.39C190.987 140.568 190.771 139.761 190.36 139.049C189.949 138.337 189.357 137.746 188.645 137.335C187.933 136.924 187.126 136.708 186.303 136.708C185.481 136.708 184.673 136.924 183.961 137.335C183.249 137.746 182.658 138.337 182.247 139.049C181.836 139.761 181.619 140.568 181.619 141.39V203.951" fill="#F5F7F8"/>
<path d="M186.304 152.725C186.552 152.725 186.754 152.524 186.754 152.276C186.754 152.028 186.552 151.827 186.304 151.827C186.055 151.827 185.854 152.028 185.854 152.276C185.854 152.524 186.055 152.725 186.304 152.725Z" fill="#F5F7F8"/>
<path d="M186.304 185.244C186.552 185.244 186.754 185.043 186.754 184.795C186.754 184.547 186.552 184.345 186.304 184.345C186.055 184.345 185.854 184.547 185.854 184.795C185.854 185.043 186.055 185.244 186.304 185.244Z" fill="#F5F7F8"/>
<path d="M190.988 203.951V141.39C190.988 140.568 190.772 139.761 190.361 139.049C189.949 138.337 189.358 137.746 188.646 137.335C187.934 136.924 187.126 136.708 186.304 136.708C185.482 136.708 184.674 136.924 183.962 137.335" stroke="#F5F7F8" stroke-linecap="round" stroke-linejoin="round"/>
<path d="M190.988 149.825H213.763V154.727H190.988V149.825Z" fill="#F5F7F8"/>
<path d="M190.988 182.344H213.763V187.246H190.988V182.344Z" fill="#F5F7F8"/>
<path d="M207.06 203.951V141.39C207.06 140.568 206.843 139.761 206.432 139.049C206.021 138.337 205.43 137.746 204.718 137.335C204.006 136.924 203.198 136.708 202.376 136.708C201.553 136.708 200.746 136.924 200.033 137.335C199.321 137.746 198.73 138.337 198.319 139.049C197.908 139.761 197.691 140.568 197.691 141.39V203.951" fill="#F5F7F8"/>
<path d="M202.376 152.725C202.625 152.725 202.826 152.524 202.826 152.276C202.826 152.028 202.625 151.827 202.376 151.827C202.128 151.827 201.926 152.028 201.926 152.276C201.926 152.524 202.128 152.725 202.376 152.725Z" fill="#F5F7F8"/>
<path d="M202.376 185.244C202.625 185.244 202.826 185.043 202.826 184.795C202.826 184.547 202.625 184.345 202.376 184.345C202.128 184.345 201.926 184.547 201.926 184.795C201.926 185.043 202.128 185.244 202.376 185.244Z" fill="#F5F7F8"/>
<path d="M207.06 203.951V141.39C207.06 140.568 206.844 139.761 206.433 139.049C206.022 138.337 205.43 137.746 204.718 137.335C204.006 136.924 203.198 136.708 202.376 136.708C201.554 136.708 200.746 136.924 200.034 137.335" stroke="#F5F7F8" stroke-linecap="round" stroke-linejoin="round"/>
<path d="M223.131 203.951V141.39C223.131 140.568 222.915 139.761 222.503 139.049C222.092 138.337 221.501 137.746 220.789 137.335C220.077 136.924 219.269 136.708 218.447 136.708C217.625 136.708 216.817 136.924 216.105 137.335C215.393 137.746 214.801 138.337 214.39 139.049C213.979 139.761 213.763 140.568 213.763 141.39V203.951" fill="#F5F7F8"/>
<path d="M218.448 152.725C218.696 152.725 218.898 152.524 218.898 152.276C218.898 152.028 218.696 151.827 218.448 151.827C218.199 151.827 217.998 152.028 217.998 152.276C217.998 152.524 218.199 152.725 218.448 152.725Z" fill="#F5F7F8"/>
<path d="M218.448 185.244C218.696 185.244 218.898 185.043 218.898 184.795C218.898 184.547 218.696 184.345 218.448 184.345C218.199 184.345 217.998 184.547 217.998 184.795C217.998 185.043 218.199 185.244 218.448 185.244Z" fill="#F5F7F8"/>
<path d="M223.131 149.825H245.906V154.727H223.131V149.825Z" fill="#F5F7F8"/>
<path d="M223.131 182.344H245.906V187.246H223.131V182.344Z" fill="#F5F7F8"/>
<path d="M239.203 203.951V141.39C239.203 140.568 238.986 139.761 238.575 139.049C238.164 138.337 237.573 137.746 236.861 137.335C236.149 136.924 235.341 136.708 234.519 136.708C233.696 136.708 232.889 136.924 232.177 137.335C231.464 137.746 230.873 138.337 230.462 139.049C230.051 139.761 229.834 140.568 229.834 141.39V203.951" fill="#F5F7F8"/>
<path d="M234.519 152.725C234.767 152.725 234.969 152.524 234.969 152.276C234.969 152.028 234.767 151.827 234.519 151.827C234.27 151.827 234.069 152.028 234.069 152.276C234.069 152.524 234.27 152.725 234.519 152.725Z" fill="#F5F7F8"/>
<path d="M234.519 185.244C234.767 185.244 234.969 185.043 234.969 184.795C234.969 184.547 234.767 184.345 234.519 184.345C234.27 184.345 234.069 184.547 234.069 184.795C234.069 185.043 234.27 185.244 234.519 185.244Z" fill="#F5F7F8"/>
<path d="M255.275 203.951V141.39C255.275 140.568 255.058 139.761 254.647 139.049C254.236 138.337 253.645 137.746 252.932 137.335C252.22 136.924 251.413 136.708 250.59 136.708C249.768 136.708 248.96 136.924 248.248 137.335C247.536 137.746 246.945 138.337 246.534 139.049C246.123 139.761 245.906 140.568 245.906 141.39V203.951" fill="#F5F7F8"/>
<path d="M250.591 152.725C250.84 152.725 251.041 152.524 251.041 152.276C251.041 152.028 250.84 151.827 250.591 151.827C250.343 151.827 250.141 152.028 250.141 152.276C250.141 152.524 250.343 152.725 250.591 152.725Z" fill="#F5F7F8"/>
<path d="M250.591 185.244C250.84 185.244 251.041 185.043 251.041 184.795C251.041 184.547 250.84 184.345 250.591 184.345C250.343 184.345 250.141 184.547 250.141 184.795C250.141 185.043 250.343 185.244 250.591 185.244Z" fill="#F5F7F8"/>
<path d="M255.274 149.825H278.049V154.727H255.274V149.825Z" fill="#F5F7F8"/>
<path d="M255.274 182.344H278.049V187.246H255.274V182.344Z" fill="#F5F7F8"/>
<path d="M271.346 203.951V141.39C271.346 140.568 271.129 139.761 270.718 139.049C270.307 138.337 269.716 137.746 269.004 137.335C268.292 136.924 267.484 136.708 266.662 136.708C265.839 136.708 265.032 136.924 264.32 137.335C263.608 137.746 263.016 138.337 262.605 139.049C262.194 139.761 261.978 140.568 261.978 141.39V203.951" fill="#F5F7F8"/>
<path d="M266.662 152.725C266.911 152.725 267.112 152.524 267.112 152.276C267.112 152.028 266.911 151.827 266.662 151.827C266.414 151.827 266.212 152.028 266.212 152.276C266.212 152.524 266.414 152.725 266.662 152.725Z" fill="#F5F7F8"/>
<path d="M266.662 185.244C266.911 185.244 267.112 185.043 267.112 184.795C267.112 184.547 266.911 184.345 266.662 184.345C266.414 184.345 266.212 184.547 266.212 184.795C266.212 185.043 266.414 185.244 266.662 185.244Z" fill="#F5F7F8"/>
<path d="M163.652 203.951H286.973" stroke="#F5F7F8" stroke-linecap="round" stroke-linejoin="round"/>
<path d="M52.9535 54.7891C48.305 54.7891 43.8469 56.6335 40.5599 59.9167C37.2729 63.1998 35.4263 67.6527 35.4263 72.2957H70.4808C70.4808 67.6527 68.6342 63.1998 65.3471 59.9166C62.0601 56.6335 57.602 54.7891 52.9535 54.7891Z" fill="#EAEEEF"/>
<path d="M94.5929 59.6282C91.2294 59.6282 88.0036 60.9628 85.6252 63.3384C83.2468 65.714 81.9106 68.936 81.9106 72.2956H107.275C107.275 68.936 105.939 65.714 103.561 63.3384C101.182 60.9628 97.9565 59.6282 94.5929 59.6282Z" fill="#EAEEEF"/>
<path d="M36.7363 63.5422C34.412 63.5422 32.1829 64.4645 30.5395 66.106C28.896 67.7476 27.9727 69.974 27.9727 72.2956H45.4999C45.4999 71.1461 45.2732 70.0078 44.8328 68.9458C44.3924 67.8838 43.7469 66.9188 42.9331 66.106C42.1193 65.2932 41.1532 64.6484 40.09 64.2085C39.0267 63.7686 37.8871 63.5422 36.7363 63.5422Z" fill="#EAEEEF"/>
<path d="M70.4808 49.0615C64.3114 49.0615 58.3948 51.5094 54.0324 55.8667C49.67 60.2239 47.2192 66.1336 47.2192 72.2957H93.7423C93.7423 66.1336 91.2916 60.2239 86.9292 55.8667C82.5668 51.5094 76.6501 49.0615 70.4808 49.0615V49.0615Z" fill="#EAEEEF"/>
<path d="M165.145 28.9182C159.245 28.9078 153.583 31.2386 149.404 35.398C145.225 39.5573 142.871 45.2045 142.86 51.0972L187.35 51.1762C187.36 45.2835 185.026 39.628 180.862 35.4538C176.698 31.2796 171.044 28.9287 165.145 28.9182Z" fill="#EAEEEF"/>
<path d="M211.485 38.5518C208.121 38.5458 204.893 39.8747 202.51 42.246C200.128 44.6174 198.786 47.837 198.78 51.1966L224.144 51.2417C224.15 47.8821 222.82 44.6577 220.446 42.2779C218.072 39.8981 214.848 38.5578 211.485 38.5518Z" fill="#EAEEEF"/>
<path d="M187.391 27.9419C181.221 27.931 175.3 30.3684 170.93 34.7179C166.56 39.0674 164.099 44.9727 164.088 51.1348L210.611 51.2174C210.622 45.0554 208.182 39.1413 203.827 34.7763C199.472 30.4113 193.56 27.9529 187.391 27.9419Z" fill="#EAEEEF"/>
<path d="M43.927 141.904C61.2057 141.904 75.2129 127.913 75.2129 110.655C75.2129 93.3962 61.2057 79.4055 43.927 79.4055C26.6483 79.4055 12.6411 93.3962 12.6411 110.655C12.6411 127.913 26.6483 141.904 43.927 141.904Z" fill="#C7D2D3"/>
<path d="M75.2126 110.655C75.2126 127.913 61.2055 141.904 43.9268 141.904" stroke="#27343A" stroke-linecap="round" stroke-linejoin="round"/>
<path d="M43.9268 123.365V186.568" stroke="#27343A" stroke-linecap="round" stroke-linejoin="round"/>
<path d="M54.9853 112.319L43.9267 123.365L32.8682 112.319" stroke="#27343A" stroke-linecap="round" stroke-linejoin="round"/>
<path d="M100.402 151.675C87.8164 151.675 75.7463 156.617 66.8471 165.412C57.9478 174.207 52.9482 186.136 52.9482 198.574H147.856C147.856 186.136 142.856 174.207 133.957 165.412C125.057 156.617 112.987 151.675 100.402 151.675Z" fill="#EAEEEF"/>
<path d="M0 161.642H16.9063V165.281H0V161.642Z" fill="#F5F7F8"/>
<path d="M0 185.782H16.9063V189.421H0V185.782Z" fill="#F5F7F8"/>
<path d="M11.9304 201.821V155.381C11.9304 154.771 11.7697 154.172 11.4645 153.643C11.1593 153.115 10.7204 152.676 10.1918 152.371C9.66321 152.066 9.0636 151.905 8.45323 151.905C7.84286 151.905 7.24325 152.066 6.71466 152.371C6.18606 152.676 5.74711 153.115 5.44193 153.643C5.13674 154.172 4.97607 154.771 4.97607 155.381V201.821" fill="#F5F7F8"/>
<path d="M8.45363 163.795C8.6381 163.795 8.78764 163.646 8.78764 163.462C8.78764 163.278 8.6381 163.128 8.45363 163.128C8.26917 163.128 8.11963 163.278 8.11963 163.462C8.11963 163.646 8.26917 163.795 8.45363 163.795Z" fill="#F5F7F8"/>
<path d="M8.45363 187.935C8.6381 187.935 8.78764 187.786 8.78764 187.601C8.78764 187.417 8.6381 187.268 8.45363 187.268C8.26917 187.268 8.11963 187.417 8.11963 187.601C8.11963 187.786 8.26917 187.935 8.45363 187.935Z" fill="#F5F7F8"/>
<path d="M23.8601 201.821V155.381C23.8601 154.771 23.6994 154.172 23.3942 153.643C23.089 153.115 22.6501 152.676 22.1215 152.371C21.5929 152.066 20.9933 151.905 20.3829 151.905C19.7726 151.905 19.1729 152.066 18.6443 152.371C18.1157 152.676 17.6768 153.115 17.3716 153.643C17.0664 154.172 16.9058 154.771 16.9058 155.381V201.821" fill="#F5F7F8"/>
<path d="M20.3838 163.795C20.5683 163.795 20.7178 163.646 20.7178 163.462C20.7178 163.278 20.5683 163.128 20.3838 163.128C20.1993 163.128 20.0498 163.278 20.0498 163.462C20.0498 163.646 20.1993 163.795 20.3838 163.795Z" fill="#F5F7F8"/>
<path d="M20.3838 187.935C20.5683 187.935 20.7178 187.786 20.7178 187.601C20.7178 187.417 20.5683 187.268 20.3838 187.268C20.1993 187.268 20.0498 187.417 20.0498 187.601C20.0498 187.786 20.1993 187.935 20.3838 187.935Z" fill="#F5F7F8"/>
<path d="M23.8608 161.642H40.7672V165.281H23.8608V161.642Z" fill="#F5F7F8"/>
<path d="M23.8608 185.782H40.7672V189.421H23.8608V185.782Z" fill="#F5F7F8"/>
<path d="M35.7907 201.821V155.381C35.7907 154.771 35.6301 154.172 35.3249 153.643C35.0197 153.115 34.5808 152.676 34.0522 152.371C33.5236 152.066 32.924 151.905 32.3136 151.905C31.7032 151.905 31.1036 152.066 30.575 152.371C30.0464 152.676 29.6075 153.115 29.3023 153.643C28.9971 154.172 28.8364 154.771 28.8364 155.381V201.821" fill="#F5F7F8"/>
<path d="M32.3145 163.795C32.4989 163.795 32.6485 163.646 32.6485 163.462C32.6485 163.278 32.4989 163.128 32.3145 163.128C32.13 163.128 31.9805 163.278 31.9805 163.462C31.9805 163.646 32.13 163.795 32.3145 163.795Z" fill="#F5F7F8"/>
<path d="M32.3145 187.935C32.4989 187.935 32.6485 187.786 32.6485 187.601C32.6485 187.417 32.4989 187.268 32.3145 187.268C32.13 187.268 31.9805 187.417 31.9805 187.601C31.9805 187.786 32.13 187.935 32.3145 187.935Z" fill="#F5F7F8"/>
<path d="M47.7209 201.821V155.381C47.7209 154.771 47.5602 154.172 47.2551 153.643C46.9499 153.115 46.5109 152.676 45.9823 152.371C45.4537 152.066 44.8541 151.905 44.2438 151.905C43.6334 151.905 43.0338 152.066 42.5052 152.371C41.9766 152.676 41.5376 153.115 41.2325 153.643C40.9273 154.172 40.7666 154.771 40.7666 155.381V201.821" fill="#F5F7F8"/>
<path d="M44.2446 163.795C44.4291 163.795 44.5787 163.646 44.5787 163.462C44.5787 163.278 44.4291 163.128 44.2446 163.128C44.0602 163.128 43.9106 163.278 43.9106 163.462C43.9106 163.646 44.0602 163.795 44.2446 163.795Z" fill="#F5F7F8"/>
<path d="M44.2446 187.935C44.4291 187.935 44.5787 187.786 44.5787 187.601C44.5787 187.417 44.4291 187.268 44.2446 187.268C44.0602 187.268 43.9106 187.417 43.9106 187.601C43.9106 187.786 44.0602 187.935 44.2446 187.935Z" fill="#F5F7F8"/>
<path d="M47.7212 161.642H64.6275V165.281H47.7212V161.642Z" fill="#F5F7F8"/>
<path d="M47.7212 185.782H64.6275V189.421H47.7212V185.782Z" fill="#F5F7F8"/>
<path d="M59.6521 201.821V155.381C59.6521 154.771 59.4914 154.172 59.1862 153.643C58.881 153.115 58.4421 152.676 57.9135 152.371C57.3849 152.066 56.7853 151.905 56.1749 151.905C55.5645 151.905 54.9649 152.066 54.4363 152.371C53.9077 152.676 53.4688 153.115 53.1636 153.643C52.8584 154.172 52.6978 154.771 52.6978 155.381V201.821" fill="#F5F7F8"/>
<path d="M56.1743 163.795C56.3588 163.795 56.5083 163.646 56.5083 163.462C56.5083 163.278 56.3588 163.128 56.1743 163.128C55.9899 163.128 55.8403 163.278 55.8403 163.462C55.8403 163.646 55.9899 163.795 56.1743 163.795Z" fill="#F5F7F8"/>
<path d="M56.1743 187.935C56.3588 187.935 56.5083 187.786 56.5083 187.601C56.5083 187.417 56.3588 187.268 56.1743 187.268C55.9899 187.268 55.8403 187.417 55.8403 187.601C55.8403 187.786 55.9899 187.935 56.1743 187.935Z" fill="#F5F7F8"/>
<path d="M71.5822 201.821V155.381C71.5822 154.771 71.4216 154.172 71.1164 153.643C70.8112 153.115 70.3723 152.676 69.8437 152.371C69.3151 152.066 68.7155 151.905 68.1051 151.905C67.4947 151.905 66.8951 152.066 66.3665 152.371C65.8379 152.676 65.399 153.115 65.0938 153.643C64.7886 154.172 64.6279 154.771 64.6279 155.381V201.821" fill="#F5F7F8"/>
<path d="M68.105 163.795C68.2895 163.795 68.439 163.646 68.439 163.462C68.439 163.278 68.2895 163.128 68.105 163.128C67.9205 163.128 67.771 163.278 67.771 163.462C67.771 163.646 67.9205 163.795 68.105 163.795Z" fill="#F5F7F8"/>
<path d="M68.105 187.935C68.2895 187.935 68.439 187.786 68.439 187.601C68.439 187.417 68.2895 187.268 68.105 187.268C67.9205 187.268 67.771 187.417 67.771 187.601C67.771 187.786 67.9205 187.935 68.105 187.935Z" fill="#F5F7F8"/>
<path d="M71.582 161.642H88.4884V165.281H71.582V161.642Z" fill="#F5F7F8"/>
<path d="M71.582 185.782H88.4884V189.421H71.582V185.782Z" fill="#F5F7F8"/>
<path d="M83.5124 201.821V155.381C83.5124 154.771 83.3517 154.172 83.0466 153.643C82.7414 153.115 82.3024 152.676 81.7738 152.371C81.2452 152.066 80.6456 151.905 80.0353 151.905C79.4249 151.905 78.8253 152.066 78.2967 152.371C77.7681 152.676 77.3291 153.115 77.024 153.643C76.7188 154.172 76.5581 154.771 76.5581 155.381V201.821" fill="#F5F7F8"/>
<path d="M80.0357 163.795C80.2201 163.795 80.3697 163.646 80.3697 163.462C80.3697 163.278 80.2201 163.128 80.0357 163.128C79.8512 163.128 79.7017 163.278 79.7017 163.462C79.7017 163.646 79.8512 163.795 80.0357 163.795Z" fill="#F5F7F8"/>
<path d="M80.0357 187.935C80.2201 187.935 80.3697 187.786 80.3697 187.601C80.3697 187.417 80.2201 187.268 80.0357 187.268C79.8512 187.268 79.7017 187.417 79.7017 187.601C79.7017 187.786 79.8512 187.935 80.0357 187.935Z" fill="#F5F7F8"/>
<path d="M3.56787 201.821H95.1123" stroke="#F5F7F8" stroke-linecap="round" stroke-linejoin="round"/>
<path d="M273.592 125.578H273.592C270.702 121.193 266.221 118.098 261.093 116.946L260.786 116.877C260.786 116.877 262.631 129.794 276.12 131.453L276.6 166.415V135.607C276.6 132.042 275.554 128.556 273.592 125.578Z" fill="#A9D053"/>
<path d="M292.412 121.023L292.105 121.092C286.977 122.244 282.497 125.338 279.607 129.724L279.607 129.724C277.644 132.701 276.599 136.188 276.599 139.752V170.561L277.366 134.521C290.854 132.863 292.412 121.023 292.412 121.023Z" fill="#A9D053"/>
<path d="M266.222 162.286H286.976V212.315H266.222V162.286Z" fill="#C7D2D3"/>
<path d="M276.599 166.415V135.607C276.599 132.042 275.553 128.556 273.591 125.578V125.578C270.701 121.193 266.22 118.099 261.092 116.946L260.785 116.877C260.785 116.877 259.955 129.313 273.444 130.972" stroke="#27343A" stroke-linecap="round" stroke-linejoin="round"/>
<path d="M276.599 170.561V139.752C276.599 136.188 277.645 132.701 279.607 129.724V129.724C282.497 125.339 286.978 122.244 292.106 121.092L292.413 121.023C292.413 121.023 293.243 133.459 279.754 135.117" stroke="#27343A" stroke-linecap="round" stroke-linejoin="round"/>
<path d="M276.599 164.272V146.377C276.599 144.306 275.992 142.281 274.852 140.552C273.173 138.005 270.571 136.207 267.592 135.538L267.414 135.498C267.414 135.498 266.932 142.721 274.767 143.685" stroke="#27343A" stroke-linecap="round" stroke-linejoin="round"/>
<path d="M86.7885 200.162L92.9937 101.076L108.518 99.3591L113.158 119.245L111.954 155.291L103.168 204.428H84.6136L86.7885 200.162Z" fill="#C7D2D3"/>
<path d="M98.0319 100.576L121.905 98.9424L126.246 100.708L128.286 204.844H106.112L108.457 200.648L98.0319 100.576Z" fill="#EAEEEF"/>
<path d="M127.862 183.22C117.152 181.412 109.723 166.582 109.723 151.893H127.249L127.862 183.22Z" fill="#27343A"/>
<path d="M116.377 50.4954V54.2593C116.377 55.6735 115.902 57.0469 115.029 58.1599C114.155 59.2728 112.933 60.0611 111.558 60.3987L105.562 61.8708V47.1548L110.548 45.9308C111.241 45.7607 111.963 45.7502 112.661 45.9001C113.359 46.05 114.013 46.3565 114.574 46.7962C115.136 47.236 115.59 47.7975 115.902 48.4384C116.215 49.0793 116.377 49.7827 116.377 50.4954L116.377 50.4954Z" fill="#F5F7F8"/>
<path d="M116.377 54.2593C116.377 55.6735 115.902 57.0469 115.029 58.1598C114.155 59.2728 112.933 60.0611 111.558 60.3986L105.562 61.8708" stroke="#27343A" stroke-linecap="round" stroke-linejoin="round"/>
<path d="M110.267 53.5125C110.107 53.5125 109.978 53.3832 109.978 53.2237C109.978 53.0641 110.107 52.9348 110.267 52.9348C110.427 52.9348 110.557 53.0641 110.557 53.2237C110.557 53.3832 110.427 53.5125 110.267 53.5125Z" fill="#27343A"/>
<path d="M114.709 53.5125C114.549 53.5125 114.42 53.3832 114.42 53.2237C114.42 53.0641 114.549 52.9348 114.709 52.9348C114.869 52.9348 114.999 53.0641 114.999 53.2237C114.999 53.3832 114.869 53.5125 114.709 53.5125Z" fill="#27343A"/>
<path d="M113.406 54.9465V50.4954H115.638" stroke="#27343A" stroke-linecap="round" stroke-linejoin="round"/>
<path d="M109.723 50.4954H111.955" stroke="#27343A" stroke-linecap="round" stroke-linejoin="round"/>
<path d="M106.273 52.7763V54.3221C105.873 54.3221 105.488 54.163 105.205 53.8799C104.921 53.5967 104.762 53.2127 104.762 52.8123C104.762 52.766 104.764 52.7202 104.768 52.6749C104.853 51.7374 106.273 51.835 106.273 52.7763Z" fill="#EAEEEF"/>
<path d="M106.273 54.3218C105.873 54.3218 105.488 54.1627 105.205 53.8796C104.921 53.5964 104.762 53.2124 104.762 52.812" stroke="#27343A" stroke-linecap="round" stroke-linejoin="round"/>
<path d="M112.186 55.4666C112.093 55.5596 111.982 55.6334 111.861 55.6837C111.739 55.7341 111.609 55.76 111.478 55.76C111.346 55.76 111.216 55.7341 111.095 55.6837C110.973 55.6334 110.863 55.5596 110.77 55.4666" stroke="#27343A" stroke-linecap="round" stroke-linejoin="round"/>
<path d="M113.406 54.9502L112.428 55.1904" stroke="#27343A" stroke-linecap="round" stroke-linejoin="round"/>
<path d="M92.9943 77.4866V101.076L126.451 109.289V83.0173C126.451 78.4906 124.932 74.0945 122.135 70.5321C119.339 66.9696 115.428 64.4465 111.027 63.3661H111.027C108.883 62.8398 106.648 62.8074 104.49 63.2712C102.332 63.735 100.308 64.6829 98.5703 66.0433C96.8331 67.4036 95.4284 69.1407 94.4624 71.1232C93.4963 73.1057 92.9943 75.2817 92.9943 77.4866V77.4866Z" fill="#F2C94C"/>
<path d="M108.458 200.648L98.0326 100.576" stroke="#27343A" stroke-linecap="round" stroke-linejoin="round"/>
<path d="M116.861 52.0187C116.861 52.0187 124.711 48.2309 122.774 44.8707C120.837 41.5104 103.863 42.3963 97.7466 48.4447C91.6299 54.4932 101.773 55.1898 101.773 55.1898" stroke="#27343A" stroke-linecap="round" stroke-linejoin="round"/>
<path d="M112.186 43.0936C112.186 43.0936 105.686 38.3652 102.736 45.3345" stroke="#27343A" stroke-linecap="round" stroke-linejoin="round"/>
<path d="M116.377 51.3705C115.27 51.3436 114.194 50.9999 113.277 50.3801C112.36 49.7604 111.64 48.8908 111.203 47.8745C111.203 47.8745 109.909 52.1172 106.274 52.253" stroke="#27343A" stroke-linecap="round" stroke-linejoin="round"/>
<path d="M103.49 50.4954C103.49 50.4954 101.35 53.9841 101.588 57.8195C102.788 58.542 104.161 58.9288 105.563 58.9396" stroke="#27343A" stroke-linecap="round" stroke-linejoin="round"/>
<path d="M119.126 67.4404C119.126 67.4404 135.977 81.6939 138.016 115.442C140.055 149.191 135.977 144.698 134.753 143.887C133.53 143.077 130.268 137.579 130.268 137.579C130.268 137.579 129.911 136.046 128.287 136.968C123.053 139.938 126.549 133.075 126.874 132.702L123.777 116.3C122.697 111.642 121.071 107.129 118.931 102.852L110.558 86.1139" stroke="#27343A" stroke-linecap="round" stroke-linejoin="round"/>
<path d="M152.743 147.08C152.743 162.755 146.834 175.462 134.955 175.462C123.075 175.462 109.722 162.755 109.722 147.08H152.743Z" fill="#F2C94C"/>
<path d="M152.743 147.08C152.743 162.755 146.834 175.462 134.955 175.462C123.075 175.462 109.722 162.755 109.722 147.08" stroke="#27343A" stroke-linecap="round" stroke-linejoin="round"/>
<path d="M138.541 138.349C141.182 140.583 143.009 143.67 143.009 147.08" stroke="#27343A" stroke-linecap="round" stroke-linejoin="round"/>
<path d="M119.457 147.08C119.457 141.628 121.525 137 125.678 135.364" stroke="#27343A" stroke-linecap="round" stroke-linejoin="round"/>
<path d="M95.0947 69.948C95.0947 69.948 76.6333 96.1012 92.0318 116.435" stroke="#27343A" stroke-linecap="round" stroke-linejoin="round"/>
<path d="M264.344 68.2715C279.639 68.2715 292.038 55.8871 292.038 40.6101C292.038 25.3332 279.639 12.9487 264.344 12.9487C249.049 12.9487 236.65 25.3332 236.65 40.6101C236.65 55.8871 249.049 68.2715 264.344 68.2715Z" fill="#F2C94C"/>
<path d="M292.038 40.6099C292.038 55.8868 279.639 68.2713 264.344 68.2713C249.049 68.2713 236.65 55.8868 236.65 40.6099" stroke="#27343A" stroke-linecap="round" stroke-linejoin="round"/>
<path d="M264.343 1V9.78914" stroke="#FFE592" stroke-linecap="round" stroke-linejoin="round"/>
<path d="M264.343 71.4308V80.2199" stroke="#FFE592" stroke-linecap="round" stroke-linejoin="round"/>
<path d="M244.515 6.30664L248.915 13.9183" stroke="#FFE592" stroke-linecap="round" stroke-linejoin="round"/>
<path d="M279.772 67.3016L284.172 74.9133" stroke="#FFE592" stroke-linecap="round" stroke-linejoin="round"/>
<path d="M230 20.8049L237.62 25.1995" stroke="#FFE592" stroke-linecap="round" stroke-linejoin="round"/>
<path d="M291.066 56.0205L298.687 60.4151" stroke="#FFE592" stroke-linecap="round" stroke-linejoin="round"/>
<path d="M224.687 40.6099H233.486" stroke="#FFE592" stroke-linecap="round" stroke-linejoin="round"/>
<path d="M295.201 40.6099H304" stroke="#FFE592" stroke-linecap="round" stroke-linejoin="round"/>
<path d="M230 60.4151L237.62 56.0205" stroke="#FFE592" stroke-linecap="round" stroke-linejoin="round"/>
<path d="M291.066 25.1995L298.687 20.8049" stroke="#FFE592" stroke-linecap="round" stroke-linejoin="round"/>
<path d="M244.515 74.9133L248.915 67.3016" stroke="#FFE592" stroke-linecap="round" stroke-linejoin="round"/>
<path d="M279.772 13.9183L284.172 6.30664" stroke="#FFE592" stroke-linecap="round" stroke-linejoin="round"/>
<path d="M201.658 106.761C201.658 106.761 174.241 153.692 165.066 200.122L161.685 202.109L177.855 207.46C177.855 207.46 213.674 153.497 215.815 146.646C217.956 139.795 214.286 106.761 214.286 106.761" fill="#C7D2D3"/>
<path d="M208.758 127.989C208.758 127.989 204.358 150.52 205.563 164.588C210.179 157.172 213.928 150.875 215.325 147.852L208.758 127.989Z" fill="#27343A"/>
<path d="M209.59 56.1807V64.9008L220.406 67.556V52.84L209.59 50.1851V56.1807Z" fill="#F5F7F8"/>
<path d="M215.7 59.1978C215.859 59.1978 215.989 59.0685 215.989 58.909C215.989 58.7494 215.859 58.6201 215.7 58.6201C215.54 58.6201 215.41 58.7494 215.41 58.909C215.41 59.0685 215.54 59.1978 215.7 59.1978Z" fill="#27343A"/>
<path d="M211.258 59.1978C211.418 59.1978 211.548 59.0685 211.548 58.909C211.548 58.7494 211.418 58.6201 211.258 58.6201C211.098 58.6201 210.969 58.7494 210.969 58.909C210.969 59.0685 211.098 59.1978 211.258 59.1978Z" fill="#27343A"/>
<path d="M212.561 60.6319V56.1807H210.328" stroke="#27343A" stroke-linecap="round" stroke-linejoin="round"/>
<path d="M216.244 56.1807H214.012" stroke="#27343A" stroke-linecap="round" stroke-linejoin="round"/>
<path d="M219.693 58.4614V60.0071C220.094 60.0071 220.479 59.8481 220.762 59.5649C221.046 59.2818 221.205 58.8978 221.205 58.4974C221.205 58.451 221.203 58.4052 221.199 58.3599C221.114 57.4224 219.693 57.52 219.693 58.4614Z" fill="#EAEEEF"/>
<path d="M219.693 60.0071C220.094 60.0071 220.478 59.848 220.762 59.5649C221.045 59.2817 221.204 58.8977 221.204 58.4973" stroke="#27343A" stroke-linecap="round" stroke-linejoin="round"/>
<path d="M218.386 67.0601L220.405 67.5558" stroke="#27343A" stroke-linecap="round" stroke-linejoin="round"/>
<path d="M212.561 60.6355L213.538 60.8757" stroke="#27343A" stroke-linecap="round" stroke-linejoin="round"/>
<path d="M209.589 58.6206C209.589 58.6206 207.418 64.9789 210.328 67.0609C213.237 69.1428 221.888 67.9299 219.542 59.3966" stroke="#27343A" stroke-linecap="round" stroke-linejoin="round"/>
<path d="M210.874 60.7494C210.834 60.8133 210.811 60.8865 210.808 60.9618C210.805 61.0372 210.821 61.1121 210.855 61.1793C210.89 61.2465 210.941 61.3036 211.004 61.345C211.067 61.3865 211.14 61.4108 211.215 61.4157C211.841 61.5552 212.786 60.3256 213.604 60.995C213.604 60.995 213.787 60.0502 215.824 60.6153C217.861 61.1804 217.162 59.8372 217.162 59.8372" stroke="#27343A" stroke-linecap="round" stroke-linejoin="round"/>
<path d="M213.361 61.8436C213.73 62.013 214.151 62.0292 214.531 61.8886C214.912 61.748 215.221 61.4622 215.391 61.094" stroke="#27343A" stroke-linecap="round" stroke-linejoin="round"/>
<path d="M208.812 53.1082C208.812 53.1082 209.545 56.2584 216.244 54.3868C216.244 54.3868 216.649 56.1025 217.802 56.1805C218.956 56.2584 218.908 57.4102 218.908 57.4102" stroke="#27343A" stroke-linecap="round" stroke-linejoin="round"/>
<path d="M209.59 56.1805C209.59 56.1805 202.597 50.1552 210.81 49.8497C219.024 49.5442 223.47 52.0881 220.448 57.7063" stroke="#27343A" stroke-linecap="round" stroke-linejoin="round"/>
<path d="M201.658 83.1715V106.761L235.115 114.974V88.7022C235.115 84.1755 233.595 79.7795 230.799 76.217C228.003 72.6546 224.092 70.1314 219.691 69.051H219.691C217.547 68.5247 215.312 68.4923 213.154 68.9561C210.996 69.4199 208.971 70.3678 207.234 71.7282C205.497 73.0885 204.092 74.8257 203.126 76.8082C202.16 78.7907 201.658 80.9667 201.658 83.1715V83.1715Z" fill="#608F3E"/>
<path d="M235.115 114.975L208.812 108.517C208.812 108.517 207.042 172.383 217.427 207.068L215.7 210.53H232.941C232.941 210.53 236.371 128.948 235.115 114.975Z" fill="#EAEEEF"/>
<path d="M208.812 108.517C208.812 108.517 207.042 172.383 217.427 207.068" stroke="#27343A" stroke-linecap="round" stroke-linejoin="round"/>
<path d="M224.625 70.9734C224.625 70.9734 244.749 82.8413 244.137 102.595C243.525 122.349 229.253 130.292 229.253 130.292" stroke="#27343A" stroke-linecap="round" stroke-linejoin="round"/>
<path d="M223.952 119.397C223.952 119.397 226.909 130.19 231.904 132.43" stroke="#27343A" stroke-linecap="round" stroke-linejoin="round"/>
<path d="M221.205 90.9193L231.904 103.953L224.22 120.289" stroke="#27343A" stroke-linecap="round" stroke-linejoin="round"/>
<path d="M224.897 118.849L231.903 103.953L223.699 93.9583V93.9583C223.699 93.9583 228.697 108.899 224.897 118.849Z" fill="#27343A"/>
<path d="M205.355 73.4878L191.017 84.8299C191.017 84.8299 174.49 63.7958 170.838 62.6798C167.187 61.5638 162.742 63.9017 162.742 63.9017V65.283L166.97 66.0508C166.97 66.0508 166.347 70.9661 169.037 73.2696C169.037 73.2696 177.379 103.721 189.902 103.817C198.466 103.883 201.658 101.509 201.658 101.509" stroke="#27343A" stroke-linecap="round" stroke-linejoin="round"/>
<path d="M206.848 54.259C206.848 54.259 198.998 50.4711 200.935 47.1109C202.872 43.7507 219.846 44.6365 225.963 50.6849C232.08 56.7334 221.936 57.43 221.936 57.43" stroke="#27343A" stroke-linecap="round" stroke-linejoin="round"/>
<path d="M211.524 45.3341C211.524 45.3341 218.024 40.6056 220.974 47.575" stroke="#27343A" stroke-linecap="round" stroke-linejoin="round"/>
<path d="M155.364 206.285C155.364 206.285 158.015 201.601 151.286 200.583C144.558 199.565 139.461 202.009 139.461 202.009C139.461 202.009 144.15 196.306 136.81 193.863C129.47 191.419 121.926 197.121 121.926 197.121C121.926 197.121 129.266 183.476 123.557 182.458C117.848 181.44 114.79 187.346 114.79 187.346C114.79 187.346 115.402 170.443 103.576 170.035C91.7505 169.628 92.9739 191.622 92.9739 191.622C92.9739 191.622 87.8766 181.847 79.3132 181.44C70.7499 181.033 75.0315 197.814 75.0315 197.814C75.0315 197.814 73.4004 193.863 67.6915 193.455C61.9826 193.048 62.3904 197.827 62.3904 197.827C62.3904 197.827 55.0503 187.549 46.8947 188.16C38.7391 188.771 42.2052 198.954 42.2052 198.954C33.8458 198.343 32.0107 207.494 32.0107 207.494H161.277L155.364 206.285Z" fill="#27343A"/>
<path d="M143.058 211.791C143.058 211.791 140.988 207.106 146.241 206.087C151.495 205.069 155.474 207.513 155.474 207.513C155.474 207.513 151.813 201.81 157.544 199.366C163.275 196.921 169.165 202.625 169.165 202.625C169.165 202.625 163.434 188.977 167.891 187.959C172.348 186.941 174.736 192.848 174.736 192.848C174.736 192.848 174.259 175.941 183.492 175.534C192.724 175.127 191.769 197.125 191.769 197.125C191.769 197.125 195.749 187.348 202.435 186.941C209.121 186.533 205.778 203.318 205.778 203.318C205.778 203.318 207.051 199.366 211.509 198.958C215.966 198.551 215.648 203.331 215.648 203.331C215.648 203.331 221.378 193.051 227.746 193.662C234.113 194.273 231.407 204.458 231.407 204.458C237.934 203.847 239.367 213 239.367 213H138.441L143.058 211.791Z" fill="#27343A"/>
</svg>
