<svg width="57" height="42" viewBox="0 0 57 42" fill="none" xmlns="http://www.w3.org/2000/svg">
<path fill-rule="evenodd" clip-rule="evenodd" d="M11 17.6842C11 11.5898 15.9065 6.63158 21.9375 6.63158C27.9685 6.63158 32.875 11.5898 32.875 17.6842C32.875 23.7786 27.9685 28.7368 21.9375 28.7368C15.9065 28.7368 11 23.7786 11 17.6842ZM26.2927 16.5789H30.6167C30.205 13.2599 27.9685 10.5066 24.9552 9.38435C25.7636 11.2806 26.1985 13.9275 26.2927 16.5789ZM20.6549 24.3687C21.2429 26.1512 21.8437 26.5263 21.9375 26.5263C22.0313 26.5263 22.6321 26.1512 23.22 24.3687C23.718 22.8592 24.0243 20.9073 24.1036 18.7884L19.7713 18.7895C19.8507 20.9084 20.1569 22.8592 20.6549 24.3687ZM20.6549 10.9997C20.1569 12.5093 19.8506 14.46 19.7713 16.5789H24.1037C24.0243 14.46 23.7181 12.5093 23.2201 10.9997C22.6321 9.21724 22.0313 8.8421 21.9375 8.8421C21.8437 8.8421 21.2429 9.21711 20.6549 10.9997ZM17.5824 16.5789C17.6766 13.9275 18.1115 11.2805 18.9199 9.38435C15.9065 10.5066 13.67 13.2599 13.2584 16.5789H17.5824ZM17.5823 18.7895H13.2583C13.67 22.1084 15.9065 24.8617 18.9198 25.9841C18.1114 24.0878 17.6765 21.4409 17.5823 18.7895ZM26.2926 18.7883C26.1984 21.4397 25.7635 24.0878 24.9551 25.984C27.9685 24.8617 30.205 22.1084 30.6166 18.7894L26.2926 18.7883Z" fill="#27343A"/>
<path fill-rule="evenodd" clip-rule="evenodd" d="M42.9727 24.1145L45.6796 26.8499C46.1068 27.2817 46.1068 27.9815 45.6797 28.413C45.2525 28.8446 44.56 28.8446 44.1328 28.413L41.4259 25.6776L39.8795 27.2403C39.3347 27.7908 38.4066 27.6154 38.1007 26.8941L34.6204 18.6887C34.4442 18.2732 34.5361 17.7913 34.8523 17.4717C35.1687 17.1521 35.6456 17.0594 36.0566 17.2373L44.1766 20.7543C44.8877 21.0622 45.0654 21.9997 44.5192 22.5518L42.9727 24.1145ZM37.7084 20.3578L39.475 24.523L40.652 23.3337L40.6531 23.3325L41.8302 22.1431L37.7084 20.3578Z" fill="#27343A"/>
<path fill-rule="evenodd" clip-rule="evenodd" d="M53.2188 33.1579H55.4062C56.0103 33.1579 56.5 33.6527 56.5 34.2632C56.5 38.5293 53.0654 42 48.8438 42H33.4219C32.8178 42 32.3281 41.5052 32.3281 40.8947C32.3281 40.2843 32.8178 39.7895 33.4219 39.7895H48.8438C51.4847 39.7895 53.6944 37.8878 54.2026 35.3673H2.7973C3.30556 37.8878 5.51528 39.7895 8.15625 39.7895H23.5781C24.1822 39.7895 24.6719 40.2843 24.6719 40.8947C24.6719 41.5052 24.1822 42 23.5781 42H8.15625C3.93458 42 0.5 38.5293 0.5 34.2632C0.5 33.6527 0.989677 33.1579 1.59375 33.1579H3.78125V1.10526C3.78125 0.494832 4.27093 0 4.875 0H52.125C52.7291 0 53.2188 0.494832 53.2188 1.10526V33.1579ZM51.0312 2.21053H5.96875V33.1579H51.0312V2.21053Z" fill="#27343A"/>
<path d="M28.5 42C29.1041 42 29.5938 41.5052 29.5938 40.8947C29.5938 40.2843 29.1041 39.7895 28.5 39.7895C27.8959 39.7895 27.4062 40.2843 27.4062 40.8947C27.4062 41.5052 27.8959 42 28.5 42Z" fill="#27343A"/>
</svg>
