<svg width="65" height="48" viewBox="0 0 65 48" fill="none" xmlns="http://www.w3.org/2000/svg">
<path d="M46.0385 30.3589C44.9056 30.3589 43.9872 31.2773 43.9872 32.4102V34.872C43.9872 36.0048 44.9056 36.9232 46.0385 36.9232C47.1714 36.9232 48.0897 36.0048 48.0897 34.872V32.4102C48.0897 31.2773 47.1714 30.3589 46.0385 30.3589Z" fill="#27343A"/>
<path fill-rule="evenodd" clip-rule="evenodd" d="M58.2778 20H60.3519C62.6396 20 64.5 21.7938 64.5 24V44C64.5 46.2062 62.6396 48 60.3519 48H31.3148C29.0271 48 27.1667 46.2062 27.1667 44V24C27.1667 21.7938 29.0271 20 31.3148 20H33.3889V12C33.3889 5.38194 38.9702 0 45.8333 0C52.6965 0 58.2778 5.38194 58.2778 12V20ZM31.3148 22C30.1699 22 29.2407 22.898 29.2407 24V44C29.2407 45.102 30.1699 46 31.3148 46H60.3519C61.4967 46 62.4259 45.102 62.4259 44V24C62.4259 22.898 61.4967 22 60.3519 22H31.3148ZM56.2037 20V12C56.2037 6.48611 51.5516 2 45.8333 2C40.1151 2 35.463 6.48611 35.463 12V20H56.2037Z" fill="#27343A"/>
<path d="M6.2436 25.8464C6.2436 26.526 6.82186 27.0768 7.53556 27.0768H18.901C19.614 27.0768 20.1923 26.526 20.1923 25.8464C20.1923 25.1667 19.614 24.6155 18.901 24.6155H7.53556C6.82186 24.6155 6.2436 25.1667 6.2436 25.8464Z" fill="#27343A"/>
<path d="M7.47412 39.3845H22.2432C22.9233 39.3845 23.4744 39.9353 23.4744 40.6155C23.4744 41.2956 22.9233 41.8464 22.2432 41.8464H7.47412C6.79465 41.8464 6.2436 41.2956 6.2436 40.6155C6.2436 39.9353 6.79465 39.3845 7.47412 39.3845Z" fill="#27343A"/>
<path d="M11.9872 33.2305C11.9872 32.5512 11.3937 32 10.6613 32H1.82517C1.09342 32 0.5 32.5512 0.5 33.2305C0.5 33.9106 1.09342 34.4618 1.82517 34.4618H10.6613C11.3937 34.4618 11.9872 33.9106 11.9872 33.2305Z" fill="#27343A"/>
</svg>
