<svg width="28" height="20" viewBox="0 0 28 20" fill="none" xmlns="http://www.w3.org/2000/svg">
<path d="M26.4033 11.8136V1.1714C26.4033 0.524466 25.8788 0 25.2319 0H14.5957C13.9488 0 13.4243 0.524466 13.4243 1.1714V11.8136C13.4243 12.0293 13.5991 12.2041 13.8148 12.2041H26.0128C26.2285 12.2041 26.4033 12.0293 26.4033 11.8136ZM17.0067 16.8019C17.0067 18.1437 18.0945 19.2315 19.4362 19.2315C20.778 19.2315 21.8658 18.1437 21.8658 16.8019C21.8658 15.4601 20.778 14.3724 19.4362 14.3724C18.0945 14.3724 17.0067 15.4601 17.0067 16.8019ZM18.2215 16.8019C18.2215 16.131 18.7654 15.5872 19.4363 15.5872C20.1072 15.5872 20.6511 16.131 20.6511 16.8019C20.6511 17.4728 20.1072 18.0167 19.4363 18.0167C18.7654 18.0167 18.2215 17.4728 18.2215 16.8019ZM22.5288 14.3723H26.9729C27.1886 14.3723 27.3634 14.5472 27.3634 14.7628V15.9474C27.3634 16.1631 27.1886 16.3379 26.9729 16.3379H23.6092C23.4953 15.5562 23.1007 14.8656 22.5288 14.3723ZM4.29502 16.8019C4.29502 18.1437 5.38281 19.2315 6.72456 19.2315C8.06635 19.2315 9.15409 18.1437 9.15409 16.8019C9.15409 15.4601 8.06635 14.3724 6.72456 14.3724C5.38281 14.3723 4.29502 15.4601 4.29502 16.8019ZM5.50974 16.8019C5.50974 16.131 6.05366 15.5872 6.72456 15.5872C7.3955 15.5872 7.93932 16.131 7.93932 16.8019C7.93932 17.4728 7.39545 18.0167 6.72456 18.0167C6.05366 18.0167 5.50974 17.4728 5.50974 16.8019ZM-5.91278e-05 14.7628V15.9474C-5.91278e-05 16.1631 0.174761 16.3379 0.390404 16.3379H2.55169C2.7778 14.7872 4.11239 12.5914 6.72447 12.5914C9.33685 12.5914 10.6715 14.7872 10.8976 16.3379H15.2633C15.3772 15.5562 15.7718 14.8656 16.3437 14.3723H11.3079V3.20381C11.3079 2.77252 10.9582 2.42287 10.527 2.42287H6.84072C5.80278 2.42287 4.83268 2.93844 4.25192 3.79865L1.8755 7.31838C1.52693 7.83467 1.34066 8.44337 1.34066 9.06634V14.3723H0.390404C0.174761 14.3723 -5.91278e-05 14.5472 -5.91278e-05 14.7628ZM3.96102 7.40852L5.86131 4.70826C5.93446 4.60435 6.05357 4.54251 6.18064 4.54251H9.14479C9.36039 4.54251 9.53526 4.71734 9.53526 4.93298V7.63324C9.53526 7.84893 9.36043 8.02371 9.14479 8.02371H4.28027C3.96398 8.02371 3.77896 7.66722 3.96102 7.40852Z" fill="white"/>
</svg>
