<svg width="32" height="32" viewBox="0 0 32 32" fill="none" xmlns="http://www.w3.org/2000/svg">
<path d="M22.47 11.1396L17.61 15.9996L22.33 20.6896C22.6697 21.0864 22.6469 21.6778 22.2775 22.0472C21.9082 22.4166 21.3167 22.4394 20.92 22.0996L16.18 17.3596L11.41 22.1296C11.1656 22.415 10.7818 22.5393 10.4165 22.4515C10.0512 22.3636 9.76603 22.0784 9.67816 21.7131C9.59028 21.3478 9.71459 20.964 9.99997 20.7196L14.78 15.9996L9.89997 11.0596C9.56019 10.6629 9.58303 10.0714 9.9524 9.70208C10.3218 9.33271 10.9132 9.30986 11.31 9.64964L16.2 14.5396L21.06 9.72964C21.4567 9.38986 22.0482 9.41271 22.4175 9.78208C22.7869 10.1514 22.8097 10.7429 22.47 11.1396Z" fill="#596870"/>
<path fill-rule="evenodd" clip-rule="evenodd" d="M16 32C7.16344 32 0 24.8366 0 16C0 7.16344 7.16344 0 16 0C24.8366 0 32 7.16344 32 16C32 20.2435 30.3143 24.3131 27.3137 27.3137C24.3131 30.3143 20.2435 32 16 32ZM16 2C8.26801 2 2 8.26801 2 16C2 23.732 8.26801 30 16 30C23.732 30 30 23.732 30 16C30 8.26801 23.732 2 16 2Z" fill="#596870"/>
</svg>
