<svg width="19" height="16" viewBox="0 0 19 16" fill="none" xmlns="http://www.w3.org/2000/svg">
<path fill-rule="evenodd" clip-rule="evenodd" d="M1.7056 1.21059L4.18338 3.68837C2.61722 4.69676 1.33721 6.09157 0.46671 7.73837L0.322266 7.99948L0.46671 8.26615C2.33893 11.7273 5.62227 13.8217 9.2556 13.8217C10.6737 13.8214 12.0735 13.5004 13.35 12.8828L16.1278 15.6606L17.1 14.8273L2.6556 0.382812L1.7056 1.21059ZM7.12222 6.62695L10.8167 10.3214C10.3992 10.5798 9.91869 10.7182 9.42778 10.7214C8.70732 10.7214 8.01661 10.4341 7.50874 9.92307C7.00087 9.41207 6.71778 8.71962 6.72222 7.99918C6.72848 7.51393 6.86676 7.03955 7.12222 6.62695ZM6.31664 5.82222C5.24347 7.33569 5.41812 9.40246 6.73004 10.7144C8.04196 12.0263 10.1087 12.201 11.6222 11.1278L12.5111 12.0167C11.4821 12.4565 10.3746 12.6833 9.25553 12.6833C6.12776 12.6833 3.28331 10.9389 1.58887 8C2.40204 6.56012 3.57316 5.35456 4.98887 4.5L6.31664 5.82222Z" fill="#596870"/>
<path d="M18.0501 7.73915C16.1779 4.27804 12.8945 2.18359 9.26121 2.18359C8.27196 2.18592 7.28935 2.34531 6.3501 2.65582L7.24454 3.55582C7.90335 3.38556 8.58076 3.29785 9.26121 3.2947C12.389 3.2947 15.2334 5.03915 16.9279 7.97804C16.3063 9.06837 15.4823 10.03 14.5001 10.8114L15.289 11.6003C16.4257 10.6832 17.3697 9.55037 18.0668 8.26693L18.2112 8.00026L18.0501 7.73915Z" fill="#596870"/>
<path d="M13.2332 8.00056C13.2348 8.45579 13.1539 8.90754 12.9944 9.3339L12.0888 8.41168C12.1105 8.27571 12.1217 8.13826 12.1221 8.00056C12.1099 6.51284 10.8988 5.31413 9.41102 5.31723C9.27333 5.31767 9.13588 5.32881 8.99991 5.35056L8.10547 4.42834C8.52661 4.27088 8.97252 4.18998 9.42214 4.18945C11.527 4.18945 13.2332 5.89575 13.2332 8.00056Z" fill="#596870"/>
</svg>
