<svg width="19" height="12" viewBox="0 0 19 12" fill="none" xmlns="http://www.w3.org/2000/svg">
<path fill-rule="evenodd" clip-rule="evenodd" d="M9.60556 2.20616C7.50227 2.22151 5.80906 3.93792 5.82234 6.04123C5.83562 8.14454 7.55037 9.83944 9.65369 9.82822C11.757 9.81701 13.4536 8.10394 13.4445 6.0006C13.4401 4.98789 13.0328 4.01858 12.3125 3.30666C11.5922 2.59474 10.6183 2.19877 9.60556 2.20616ZM9.60576 8.71724C8.12048 8.70193 6.9265 7.48978 6.93363 6.00443C6.94075 4.51909 8.1463 3.31845 9.63166 3.31738C11.117 3.31632 12.3243 4.51524 12.3335 6.00057C12.3365 6.72392 12.0498 7.41835 11.5372 7.92879C11.0247 8.43924 10.3291 8.72319 9.60576 8.71724Z" fill="#596870"/>
<path fill-rule="evenodd" clip-rule="evenodd" d="M18.2332 5.73915C16.361 2.27804 13.0777 0.183594 9.44432 0.183594C5.81099 0.183594 2.5221 2.27804 0.666542 5.73915L0.510986 6.00026L0.655431 6.26693C2.52765 9.72804 5.81099 11.8225 9.44432 11.8225C13.0777 11.8225 16.3665 9.75582 18.2332 6.26693L18.3777 6.00026L18.2332 5.73915ZM9.44426 10.6841C6.31648 10.6841 3.44425 8.93961 1.77759 6.00072C3.44425 3.06183 6.31648 1.31738 9.44426 1.31738C12.572 1.31738 15.4109 3.06738 17.1054 6.00072C15.4109 8.93961 12.5665 10.6841 9.44426 10.6841Z" fill="#596870"/>
</svg>
