<svg width="19" height="19" viewBox="0 0 19 19" fill="none" xmlns="http://www.w3.org/2000/svg">
<path fill-rule="evenodd" clip-rule="evenodd" d="M0.166504 9.50008C0.166504 4.34542 4.34518 0.166748 9.49984 0.166748C11.9752 0.166748 14.3492 1.15008 16.0995 2.90042C17.8498 4.65076 18.8332 7.02473 18.8332 9.50008C18.8332 14.6547 14.6545 18.8334 9.49984 18.8334C4.34518 18.8334 0.166504 14.6547 0.166504 9.50008ZM10.1707 10.5441V11.5474C10.1682 11.9711 9.83551 12.3191 9.41241 12.3407H9.34824C9.13991 12.3486 8.93707 12.2729 8.78481 12.1305C8.63255 11.9881 8.54348 11.7908 8.53741 11.5824V9.97241C8.51797 9.78342 8.57685 9.59473 8.70031 9.45032C8.82377 9.30592 9.00102 9.21843 9.19074 9.20825C10.1066 9.13825 11.6291 8.79992 11.6291 7.31242C11.6291 6.24492 10.8066 5.52158 9.62824 5.52158C8.72428 5.53651 7.87196 5.94562 7.29491 6.64158C7.07433 6.87596 6.73401 6.95384 6.43345 6.83874C6.13289 6.72363 5.93166 6.43834 5.92407 6.11658C5.92751 5.89667 6.01766 5.68702 6.17491 5.53325C7.05185 4.51799 8.33351 3.94339 9.67491 3.96408C11.8332 3.96408 13.3382 5.30575 13.3382 7.23075C13.3382 9.00992 12.1891 10.1999 10.1707 10.5441ZM9.37146 15.2458C8.98217 15.2458 8.63121 15.0113 8.48223 14.6517C8.33325 14.292 8.4156 13.878 8.69087 13.6027C8.96615 13.3275 9.38013 13.2451 9.7398 13.3941C10.0995 13.5431 10.334 13.894 10.334 14.2833C10.334 14.8149 9.90304 15.2458 9.37146 15.2458Z" fill="white"/>
</svg>
