<svg width="18" height="18" viewBox="0 0 18 18" fill="none" xmlns="http://www.w3.org/2000/svg">
<path fill-rule="evenodd" clip-rule="evenodd" d="M4.14844 9C4.14844 6.32478 6.32482 4.14837 9 4.14837C11.6752 4.14837 13.8516 6.32478 13.8516 9C13.8516 11.6752 11.6752 13.8516 9 13.8516C6.32482 13.8516 4.14844 11.6752 4.14844 9ZM5.55469 9C5.55469 10.8996 7.10026 12.4451 9 12.4451C10.8997 12.4451 12.4453 10.8996 12.4453 9C12.4453 7.10038 10.8997 5.55489 9 5.55489C7.10026 5.55489 5.55469 7.10038 5.55469 9Z" fill="#596870"/>
<path d="M14.625 4.07892C14.625 4.46732 14.3102 4.78218 13.9219 4.78218C13.5335 4.78218 13.2188 4.46732 13.2188 4.07892C13.2188 3.69052 13.5335 3.37566 13.9219 3.37566C14.3102 3.37566 14.625 3.69052 14.625 4.07892Z" fill="#596870"/>
<path fill-rule="evenodd" clip-rule="evenodd" d="M5.22872 0H12.7713C15.6544 0 18 2.34559 18 5.22872V12.7713C18 15.6544 15.6544 18 12.7713 18H5.22872C2.34559 18 0 15.6544 0 12.7713V5.22872C0 2.34559 2.34559 0 5.22872 0ZM12.7713 16.5944C14.879 16.5944 16.5938 14.8796 16.5938 12.7718V5.22908C16.5938 3.12131 14.879 1.40652 12.7713 1.40652H5.22872C3.121 1.40652 1.40625 3.12131 1.40625 5.22908V12.7718C1.40625 14.8796 3.121 16.5944 5.22872 16.5944H12.7713Z" fill="#596870"/>
</svg>
