<svg width="18" height="18" viewBox="0 0 18 18" fill="none" xmlns="http://www.w3.org/2000/svg">
<path d="M2.1839 0C0.863593 0 0 0.906386 0 2.09831C0 3.26427 0.838608 4.19816 2.13268 4.19816H2.15846C3.50434 4.19816 4.34136 3.26444 4.34136 2.09831C4.316 0.906386 3.50434 0 2.1839 0Z" fill="#596870"/>
<path d="M18 11.0359V18H14.1419V11.5023C14.1419 9.87006 13.5838 8.7561 12.1873 8.7561C11.1212 8.7561 10.4868 9.50683 10.2077 10.233C10.1059 10.4926 10.0797 10.854 10.0797 11.2174V18H6.22029C6.22029 18 6.27226 6.99508 6.22029 5.85489H10.0794V7.57641C10.0757 7.58247 10.0715 7.58876 10.0673 7.59501C10.0626 7.60203 10.0579 7.60906 10.054 7.61565H10.0794V7.57641C10.5921 6.75005 11.5077 5.56957 13.5572 5.56957C16.0965 5.56952 18 7.30541 18 11.0359Z" fill="#596870"/>
<path d="M4.08654 17.9981H0.228525V5.85364H4.08654V17.9981Z" fill="#596870"/>
</svg>
