<svg width="19" height="18" viewBox="0 0 19 18" fill="none" xmlns="http://www.w3.org/2000/svg">
<path fill-rule="evenodd" clip-rule="evenodd" d="M7.51666 0.111084C3.52793 0.111084 0.294434 3.34458 0.294434 7.33331C0.294434 11.322 3.52793 14.5555 7.51666 14.5555C11.5054 14.5555 14.7389 11.322 14.7389 7.33331C14.7389 3.34458 11.5054 0.111084 7.51666 0.111084ZM13.1409 5.00136C12.1976 2.72835 9.97767 1.24762 7.51669 1.24987C4.16545 1.26811 1.45409 3.98194 1.43891 7.3332C1.43891 9.79418 2.92167 12.0127 5.19554 12.954C7.46941 13.8953 10.0864 13.3738 11.8258 11.6328C13.5652 9.89182 14.0843 7.27436 13.1409 5.00136Z" fill="#596870"/>
<path d="M17.8888 16.9389L13.7944 12.8167L13.0055 13.6L17.0999 17.7223C17.2399 17.8632 17.4443 17.9187 17.6363 17.868C17.8283 17.8173 17.9787 17.668 18.0308 17.4764C18.0829 17.2847 18.0287 17.0798 17.8888 16.9389Z" fill="#596870"/>
</svg>
