<svg width="28" height="20" viewBox="0 0 28 20" fill="none" xmlns="http://www.w3.org/2000/svg">
<path d="M26.4445 2.00043H1.55564C1.06472 2.00043 0.666748 1.60247 0.666748 1.11155C0.666748 0.620625 1.06472 0.222656 1.55564 0.222656H26.4445C26.9354 0.222656 27.3334 0.620625 27.3334 1.11155C27.3334 1.60247 26.9354 2.00043 26.4445 2.00043Z" fill="#596870"/>
<path d="M26.4445 10.8893H1.55564C1.06472 10.8893 0.666748 10.4914 0.666748 10.0004C0.666748 9.50951 1.06472 9.11155 1.55564 9.11155H26.4445C26.9354 9.11155 27.3334 9.50951 27.3334 10.0004C27.3334 10.4914 26.9354 10.8893 26.4445 10.8893Z" fill="#596870"/>
<path d="M1.55564 19.7782H26.4445C26.9354 19.7782 27.3334 19.3802 27.3334 18.8893C27.3334 18.3984 26.9354 18.0004 26.4445 18.0004H1.55564C1.06472 18.0004 0.666748 18.3984 0.666748 18.8893C0.666748 19.3802 1.06472 19.7782 1.55564 19.7782Z" fill="#596870"/>
</svg>
