<svg width="40" height="33" viewBox="0 0 40 33" fill="none" xmlns="http://www.w3.org/2000/svg">
<path d="M39.9217 3.92982C38.4467 4.58789 36.8718 5.03619 35.2135 5.24089C36.9035 4.20726 38.2034 2.57815 38.8184 0.634388C37.2334 1.57328 35.4769 2.25673 33.6069 2.63736C32.1137 1.01502 29.9854 0 27.6222 0C23.094 0 19.4225 3.72682 19.4225 8.31809C19.4225 8.97785 19.4975 9.61224 19.6342 10.2196C12.8178 9.89306 6.77638 6.57056 2.73322 1.54791C2.02158 2.76931 1.62327 4.18865 1.62327 5.73486C1.62327 8.62767 3.07321 11.1703 5.26978 12.6641C3.92484 12.6201 2.65989 12.2445 1.5566 11.622V11.7252C1.5566 15.7599 4.37815 19.1247 8.13299 19.891C7.44469 20.0788 6.71805 20.1803 5.97308 20.1803C5.44977 20.1803 4.94813 20.1295 4.44648 20.0348C5.4981 23.3387 8.52131 25.7477 12.1195 25.8153C9.31961 28.0467 5.77143 29.3764 1.94992 29.3764C1.29995 29.3764 0.65164 29.3375 0 29.263C3.64818 31.6213 7.94634 33 12.5945 33C27.6838 33 35.9252 20.319 35.9252 9.33988C35.9252 8.98631 35.9252 8.62936 35.9002 8.27411C37.5018 7.10852 38.9 5.63505 40 3.96365L39.9217 3.92982Z" fill="#1DA1F2"/>
</svg>
